<svg width="602" height="585" viewBox="0 0 602 585" fill="none" xmlns="http://www.w3.org/2000/svg">
<mask id="mask0_290_14" style="mask-type:luminance" maskUnits="userSpaceOnUse" x="0" y="0" width="602" height="585">
<path d="M601.5 0H0V585H601.5V0Z" fill="white"/>
</mask>
<g mask="url(#mask0_290_14)">
<path d="M167.801 159.9C172.901 157.9 176.001 154.5 177.601 149.4C179.701 154.1 182.001 158.3 187.501 159.8C182.301 161.6 179.401 165.1 177.901 170.2C175.901 165.3 173.001 161.5 167.801 159.9Z" fill="#7456F1"/>
</g>
<mask id="mask1_290_14" style="mask-type:luminance" maskUnits="userSpaceOnUse" x="0" y="0" width="602" height="585">
<path d="M601.5 0H0V585H601.5V0Z" fill="white"/>
</mask>
<g mask="url(#mask1_290_14)">
<path d="M121.4 205.1C124.4 203.7 127.6 201.7 128.1 197.5C130.7 200.6 133.1 203.4 135.3 205.9C133.3 207.9 130.8 210.4 128.6 212.7C126.5 210.5 124 207.9 121.4 205.1Z" fill="#7456F1"/>
</g>
<mask id="mask2_290_14" style="mask-type:luminance" maskUnits="userSpaceOnUse" x="0" y="0" width="602" height="585">
<path d="M601.5 0H0V585H601.5V0Z" fill="white"/>
</mask>
<g mask="url(#mask2_290_14)">
<path d="M265.6 166.5C263.5 164.4 261.3 162.3 259.2 160.2C258.8 160.7 258.4 161.2 258.1 161.7C260.2 159.4 262.4 157 264.4 154.9C266.3 157 268.4 159.3 270.4 161.5C268.5 163.5 266.4 165.7 264.3 167.9C264.6 167.4 265.1 167 265.6 166.5Z" fill="#7456F1"/>
</g>
<mask id="mask3_290_14" style="mask-type:luminance" maskUnits="userSpaceOnUse" x="0" y="0" width="602" height="585">
<path d="M601.5 0H0V585H601.5V0Z" fill="white"/>
</mask>
<g mask="url(#mask3_290_14)">
<path d="M167.5 237.5C169.4 235.4 170.9 233.7 172.4 232.1C178.4 238.9 178.6 236.4 172.6 242.2C171 240.7 169.3 239.2 167.5 237.5Z" fill="#7456F1"/>
</g>
<mask id="mask4_290_14" style="mask-type:luminance" maskUnits="userSpaceOnUse" x="0" y="0" width="602" height="585">
<path d="M601.5 0H0V585H601.5V0Z" fill="white"/>
</mask>
<g mask="url(#mask4_290_14)">
<path d="M339.899 206.5C338.199 208.3 336.799 209.8 335.399 211.3C335.099 211.2 334.799 211.2 334.699 211.1C333.299 209.4 330.799 207.6 330.899 206C330.999 204.3 333.599 202.8 335.199 201C336.799 202.8 338.299 204.5 339.899 206.5Z" fill="#7456F1"/>
</g>
<mask id="mask5_290_14" style="mask-type:luminance" maskUnits="userSpaceOnUse" x="0" y="0" width="602" height="585">
<path d="M601.5 0H0V585H601.5V0Z" fill="white"/>
</mask>
<g mask="url(#mask5_290_14)">
<path d="M278.2 188.1C279.7 189.9 281 191.5 282.4 193.3C281 194.9 279.6 196.3 278.3 197.7C273 193.7 273 193.7 278.2 188.1Z" fill="#7456F1"/>
</g>
<mask id="mask6_290_14" style="mask-type:luminance" maskUnits="userSpaceOnUse" x="0" y="0" width="602" height="585">
<path d="M601.5 0H0V585H601.5V0Z" fill="white"/>
</mask>
<g mask="url(#mask6_290_14)">
<path d="M209.9 186.7C208.3 188.4 207 189.8 205.8 191.2C200.7 187.5 200.7 187.5 205.6 181.7C207 183.4 208.4 185 209.9 186.7Z" fill="#7456F1"/>
</g>
<mask id="mask7_290_14" style="mask-type:luminance" maskUnits="userSpaceOnUse" x="0" y="0" width="602" height="585">
<path d="M601.5 0H0V585H601.5V0Z" fill="white"/>
</mask>
<g mask="url(#mask7_290_14)">
<path d="M255.501 188.1C254.101 189.6 252.901 190.8 251.801 192C251.701 192.1 251.401 192.2 251.301 192.3C246.301 188.5 246.301 187.9 251.301 183.2C252.601 184.8 254.001 186.4 255.501 188.1Z" fill="#7456F1"/>
</g>
<mask id="mask8_290_14" style="mask-type:luminance" maskUnits="userSpaceOnUse" x="0" y="0" width="602" height="585">
<path d="M601.5 0H0V585H601.5V0Z" fill="white"/>
</mask>
<g mask="url(#mask8_290_14)">
<path d="M296.3 227.4C291.7 223.9 291.7 222.9 296.3 218.5C301.3 222.9 301.3 223.3 296.3 227.4Z" fill="#7456F1"/>
</g>
<mask id="mask9_290_14" style="mask-type:luminance" maskUnits="userSpaceOnUse" x="0" y="0" width="602" height="585">
<path d="M601.5 0H0V585H601.5V0Z" fill="white"/>
</mask>
<g mask="url(#mask9_290_14)">
<path d="M159.901 221.6C154.801 217.2 155.101 218.3 160.101 213.3C164.901 217.4 165.801 217.6 159.901 221.6Z" fill="#7456F1"/>
</g>
<mask id="mask10_290_14" style="mask-type:luminance" maskUnits="userSpaceOnUse" x="0" y="0" width="602" height="585">
<path d="M601.5 0H0V585H601.5V0Z" fill="white"/>
</mask>
<g mask="url(#mask10_290_14)">
<path d="M437.5 417.1C436.8 411.3 435.7 406.6 435.7 401.9C435.6 382.9 429.3 365.7 420.8 349.1C419 345.6 418.1 342 418.2 338.1C418.4 331.1 418.1 324.2 418.3 317.2C418.3 315.1 417.6 314.2 415.7 313.5C405.5 309.9 395.4 306.2 385.3 302.6C384.6 302.3 383.9 302 382.9 301.6C396.4 288.2 409.4 274.5 428.1 268.7C450.9 261.7 470.9 266.6 487.5 283.9C489.8 286.3 492 288.8 494.4 291.3C491.5 295.6 488.9 299.7 486 303.7C484.9 305.3 484.3 306.7 485.1 308.7C486 311.1 486.2 313.7 487.3 316C489 319.8 488.1 322.3 485.1 325.1C474.6 335 468.8 347.6 464.6 361.1C459.7 376.5 454.3 391.6 445.4 405.3C443 408.9 440.5 412.6 437.5 417.1ZM448 286.3C439.4 286.3 432.6 293.4 432.6 302C432.7 310.5 440 317.7 448.5 317.7C457 317.7 464.1 310.6 464.1 302.1C464.1 293.5 456.8 286.3 448 286.3Z" fill="#7456F1"/>
</g>
<mask id="mask11_290_14" style="mask-type:luminance" maskUnits="userSpaceOnUse" x="0" y="0" width="602" height="585">
<path d="M601.5 0H0V585H601.5V0Z" fill="white"/>
</mask>
<g mask="url(#mask11_290_14)">
<path d="M347.099 291.2C347.899 289.8 348.899 288.3 349.999 286.5C347.099 283.3 343.999 280.1 341.099 276.7C333.199 267.6 325.399 258.5 317.699 249.4C315.999 247.4 314.599 245.8 311.399 246.7C307.799 247.7 303.499 244.8 301.999 241.5C300.199 237.6 300.899 232.6 304.099 230C305.699 228.7 305.699 227.5 305.399 225.6C302.199 207.9 299.099 190.3 295.999 172.6C295.799 171.2 294.899 169.9 293.999 168.8C290.299 164.1 290.699 157.9 295.299 155C298.499 153 301.899 153 305.199 154.8C308.899 156.8 309.599 160.2 309.199 163.8C308.799 167.4 306.799 169.9 303.099 170.8C302.399 171 301.699 171.3 300.499 171.6C301.399 176.7 302.199 181.7 303.199 186.7C305.699 199.2 308.299 211.7 310.999 224.2C311.199 225.3 312.499 226.7 313.599 227.1C319.099 229 321.999 234.5 320.299 240.2C319.999 241.2 319.699 242.7 320.299 243.4C328.199 253 336.199 262.4 344.499 272.1C344.699 271.4 344.899 271.1 344.899 270.8C345.099 261.3 345.199 251.7 345.399 242.2C345.399 240.1 345.099 238.7 342.599 238C338.999 237 336.199 231.8 336.599 227.9C337.099 223 340.499 219.2 345.099 218.3C349.299 217.5 353.599 219.6 355.699 223.3C358.399 228.2 356.999 233.8 352.499 237.2C351.699 237.8 350.899 239.2 350.899 240.2C350.599 252 350.399 263.8 350.199 275.5C350.099 278.5 354.499 283.9 357.099 283.6C365.799 282.8 373.099 292.4 366.699 302.6C371.499 304.9 376.199 307.3 381.099 309.3C389.799 312.8 398.599 315.9 407.399 319.1C409.499 319.8 410.199 320.9 410.099 323C409.899 327.3 409.999 331.7 409.999 336C400.999 334.4 394.799 328.5 387.899 323.7C379.799 318.1 371.699 312.5 363.599 307C362.699 306.4 361.199 306.2 360.099 306.3C354.299 306.7 350.299 304.6 347.499 299.5C346.899 298.5 345.899 297.6 344.899 297C336.499 291.9 327.999 287 319.599 281.9C307.799 274.8 294.799 271.1 281.699 267.7C279.699 267.2 277.599 266.6 275.399 266.1C275.799 264.4 276.099 262.6 276.599 260.3C283.599 262.2 290.699 264 298.499 266.1C295.999 262.5 293.899 259.5 291.799 256.6C286.099 248.6 280.499 240.5 274.699 232.5C274.099 231.6 273.099 230.7 272.099 230.5C268.799 230.1 266.999 228.2 265.599 225.5C265.099 224.5 264.499 223.3 263.599 222.9C255.299 218.6 246.899 214.4 238.499 210.1C236.999 209.3 235.599 207.9 234.599 206.5C231.499 202.1 228.699 197.6 225.699 193.1C221.599 195 217.999 194.7 214.699 192C209.799 188 209.499 180.5 214.499 176.6C216.799 174.8 217.299 172.9 217.099 170.4C215.999 160.5 214.999 150.7 213.899 140.9C206.899 137.7 204.399 133.6 205.599 127.5C206.499 122.8 210.799 119.4 216.099 119.2C220.999 119 225.299 122.3 226.699 127.3C228.099 132.5 225.799 136.9 219.799 140.2C220.299 145.4 220.699 150.7 221.299 156C221.799 161.1 222.399 166.2 223.199 171.2C223.399 172.4 224.399 173.9 225.399 174.4C230.499 177.2 232.399 181.4 231.199 187.2C230.899 188.4 231.099 190 231.699 191.1C233.999 195.1 236.499 198.9 238.999 202.8C239.599 203.7 240.299 204.6 241.199 205C249.299 209.2 257.499 213.4 265.699 217.6C266.099 217.8 266.599 217.9 267.799 218.3C267.399 216.5 267.299 215.2 266.899 214C264.999 208.5 263.099 203.1 261.199 197.7C260.499 195.8 259.899 194.1 257.799 193.1C255.399 192 254.599 188.5 255.599 186.1C256.599 183.7 259.299 182.3 261.999 183C264.799 183.7 266.899 185.6 266.199 188.5C264.899 193.9 267.799 198.2 268.999 202.9C269.599 205.2 270.799 207.3 271.299 209.5C272.099 212.6 273.199 214.7 276.799 215.8C281.199 217.2 282.499 221.9 280.599 226.4C280.199 227.5 280.099 229.2 280.699 230.1C289.599 242.7 298.699 255.3 307.799 267.8C308.399 268.6 309.299 269.3 310.299 269.8C322.199 277 334.499 284 347.099 291.2Z" fill="#7456F1"/>
</g>
<mask id="mask12_290_14" style="mask-type:luminance" maskUnits="userSpaceOnUse" x="0" y="0" width="602" height="585">
<path d="M601.5 0H0V585H601.5V0Z" fill="white"/>
</mask>
<g mask="url(#mask12_290_14)">
<path d="M224 248.9C220.2 244.2 216.9 240 213.6 235.9C209.4 230.6 205.1 225.4 201 220.1C199.9 218.7 199.1 218.1 197 218.8C193 220.2 189.3 219.1 186.5 216C183.7 212.9 183.5 209.2 184.7 205.2C185.1 204 185 202.1 184.3 201.3C176.9 192.7 169.3 184.2 161.9 175.7C160.7 174.3 159.6 174 157.8 174.6C153.4 176 148.1 173.6 146 169.7C143.8 165.6 144.6 160.2 148 157C151.1 154.1 157 153.6 160.6 155.8C164.6 158.2 166.4 163.4 165.2 167.8C164.9 169 165 170.9 165.8 171.7C173.4 180.4 181.2 188.9 188.9 197.5C190 198.8 191.1 199.3 193 199.1C200.1 198.2 205.6 204.8 204.3 211.9C204.1 213.1 204.3 214.9 205 215.8C213.7 227 222.6 238.1 231.4 249.2C232 249.9 232.8 250.5 233.7 250.7C241 252.3 248.2 253.9 255.5 255.4C256.2 255.6 257.1 255.1 257.9 255C257.7 254 257.7 252.9 257.2 252.1C252 244.4 246 237.4 237.9 232.4C234.6 230.4 231.8 227.7 228.7 225.4C227.2 224.3 225.5 223.4 223.8 222.7C221.5 221.7 219.7 218.7 220.4 216.5C221.2 214 223.1 212.7 225.7 212.7C228.2 212.7 230.2 215.1 230.6 217.8C230.7 218.8 231.3 220 232 220.6C237.1 224.6 242.1 228.8 247.6 232.4C253.9 236.6 257.3 243.2 261.9 248.7C263.4 250.5 264.6 252.1 267.3 252.6C271.1 253.4 273.4 257.2 273.2 261.1C273 264.7 270.2 268.2 266.7 269C262.6 269.9 257.9 268 256.5 264.3C255.5 261.7 254.1 260.9 251.6 260.4C233.3 256.9 215 253.2 196.7 249.6C195.9 249.5 194.7 250 194.2 250.6C189 256.7 180 255.4 177.2 247.9C176.4 245.8 175.3 244.9 173.4 243.9C164.3 239 155.2 234 146.2 228.9C143.4 227.3 141.2 225.9 137.7 228.5C133.8 231.4 128 230 124.6 226.3C121.5 222.9 120.9 217 123.4 212.8C125.7 208.9 131 206.8 135.7 207.9C140.4 209 143.9 213.1 143.8 218C143.8 220.3 144.6 221.5 146.5 222.5C156.5 227.9 166.4 233.3 176.3 238.7C177.6 239.4 178.5 239.7 179.9 238.4C185.3 233.5 192.4 235.3 195.4 242.2C195.7 242.8 196.3 243.6 196.8 243.7C205.5 245.5 214.3 247.1 224 248.9Z" fill="#7456F1"/>
</g>
<mask id="mask13_290_14" style="mask-type:luminance" maskUnits="userSpaceOnUse" x="0" y="0" width="602" height="585">
<path d="M601.5 0H0V585H601.5V0Z" fill="white"/>
</mask>
<g mask="url(#mask13_290_14)">
<path d="M361.999 330.5C349.599 335.1 338.199 339.6 326.599 343.3C321.899 344.8 316.599 344.4 311.599 344.8C303.699 345.5 295.799 346.1 287.999 346.9C287.199 347 286.299 347.7 285.899 348.3C283.199 352.7 278.699 354.4 274.499 352.6C270.099 350.7 267.699 345.9 269.099 341.2C269.999 338.2 272.299 336.5 275.299 335.8C278.999 335 282.499 335.8 284.799 338.9C286.199 340.8 287.399 341.3 289.699 341.1C300.499 340 311.499 339.8 322.199 338.2C329.199 337.1 335.799 334.2 342.599 332.1C342.599 331.8 342.599 331.5 342.599 331.2C340.499 330.8 338.499 330.4 336.399 330.1C323.199 328.2 309.999 326.3 296.799 324.5C295.599 324.3 294.099 324.9 293.099 325.6C290.199 327.8 287.299 328.1 284.099 326.4C281.199 324.9 280.099 322.1 280.199 318.3C280.199 317.1 279.599 315.7 278.799 314.8C275.099 311.1 271.399 307.4 267.399 303.9C265.999 302.7 263.899 301.7 262.099 301.7C249.899 301.3 237.699 301.2 225.499 301C224.299 301 223.099 301.1 221.999 300.8C219.099 300.1 217.099 300.6 214.799 303.1C210.599 307.6 202.499 305.8 200.199 299.8C199.099 297 197.599 295.9 194.999 295.2C187.999 293.3 181.099 291.1 174.099 289.2C172.699 288.8 170.899 289.3 169.499 290C166.999 291.3 164.499 292 161.899 290.7C159.399 289.5 157.999 287.5 158.099 284.5C158.099 283.7 157.799 282.5 157.199 282.1C150.799 278 144.399 274.1 137.599 269.9C136.899 270.7 136.199 271.6 135.399 272.4C131.999 275.5 127.599 276 123.599 273.7C119.699 271.4 117.999 267 119.199 262.3C120.199 258.3 123.899 255.4 128.099 255.2C132.999 254.9 136.799 257.4 138.399 261.7C138.899 262.9 139.599 264.2 140.599 264.9C146.899 269.1 153.299 273.2 159.799 277.1C160.799 277.7 162.399 277.9 163.599 277.6C166.999 276.8 169.899 278 171.699 281C172.299 282 173.299 283.1 174.299 283.4C182.699 285.9 190.999 288.3 199.499 290.5C200.399 290.7 201.699 290.2 202.499 289.5C207.799 285.2 214.799 286.7 217.599 292.9C218.299 294.5 219.099 295.1 220.899 295.1C235.099 295.2 249.399 295.6 263.599 295.7C266.699 295.7 268.899 296.7 270.999 298.7C274.799 302.5 278.599 306.3 282.299 310.1C283.399 311.2 284.199 311.8 286.099 311.3C289.999 310.2 293.699 312.5 295.499 316.2C295.999 317.3 297.499 318.5 298.599 318.7C308.599 320.2 318.699 321.1 328.699 322.8C338.699 324.5 348.699 326.8 358.599 328.9C359.499 329.4 360.299 329.8 361.999 330.5Z" fill="#7456F1"/>
</g>
<mask id="mask14_290_14" style="mask-type:luminance" maskUnits="userSpaceOnUse" x="0" y="0" width="602" height="585">
<path d="M601.5 0H0V585H601.5V0Z" fill="white"/>
</mask>
<g mask="url(#mask14_290_14)">
<path d="M407.9 353.3C401.9 352.7 396.1 351.9 390.2 351.5C387.2 351.3 385.2 350.5 383.7 347.5C380.8 341.6 377.4 335.9 374.2 330.1C377.1 327.5 379.6 328 382.5 330.2C387.9 334.2 393.6 337.7 399.2 341.4C399.6 341.7 400.2 341.9 400.7 342C407.9 343.1 411.8 347.3 414.2 354.1C416.9 361.6 420.4 368.8 423.6 376.2C424.3 377.7 424.2 378.7 422.7 379.7C421.1 380.8 419.9 382.3 418.4 383.6C416.5 385.3 414.9 386.9 411.6 386.4C406.8 385.6 402.6 390.7 404.4 395.2C406.4 400.3 404.6 404.8 404 409.5C403.5 413.5 402.6 417.5 401.6 421.4C401.2 422.8 400.3 424.5 399.1 425.3C391.9 430.2 384.6 434.7 377.4 439.6C376 440.6 374.6 442 373.8 443.5C371.4 448 369.3 452.7 367.1 457.3C366.6 458.3 366 459.8 365.1 460C358.9 461.6 352.6 463 345.4 464.7C347.4 459.6 348.9 455.5 350.6 451.5C351 450.6 352.2 449.9 353.2 449.6C356.1 448.6 358.3 447.2 359.2 444C359.5 443 360.7 441.9 361.7 441.5C365.9 439.9 368.8 437.3 370.6 433C372 429.6 374.4 426.5 375.9 423.1C378.5 417 383.1 412.9 389 410.1C391.5 408.9 392.8 407.1 393.6 404.4C398.2 388.2 402.9 372.1 407.6 355.9C407.7 355.3 407.7 354.5 407.9 353.3Z" fill="#7456F1"/>
</g>
<mask id="mask15_290_14" style="mask-type:luminance" maskUnits="userSpaceOnUse" x="0" y="0" width="602" height="585">
<path d="M601.5 0H0V585H601.5V0Z" fill="white"/>
</mask>
<g mask="url(#mask15_290_14)">
<path d="M303.6 465.7C307.1 460.7 310.4 455.6 314.1 450.8C315.2 449.4 317.5 448.6 319.4 448.1C327.9 445.9 334.3 441.4 336.7 432.4C338.8 424.3 344.6 420.2 352.4 418.2C355.5 417.4 358.3 415.6 361.3 414.7C365.2 413.6 366.9 411.2 367.9 407.5C369.6 401 371.7 394.6 373.8 388.2C374.1 387.2 374.7 385.7 375.6 385.4C378.5 384.4 379.5 382.2 380.6 379.7C383.1 374 385.9 368.5 388.4 362.8C389.4 360.6 390.7 359.8 393.1 360.2C394.7 360.4 396.3 360.2 398.4 360.2C397.2 364.6 396.1 368.7 394.9 372.7C392.1 382 389.3 391.2 386.4 400.5C386 401.8 385 403.2 383.9 403.8C377.8 407.1 373.1 411.5 370.1 417.9C367.9 422.5 365.1 426.8 362.3 431.1C361.1 433 359.3 434.6 358 436.1C355.6 435.3 353.7 434.4 351.8 434.2C346.8 433.7 343.2 438.2 344.1 443.1C344.4 444.5 344.3 446 343.8 447.3C342 452.4 340 457.5 338.2 462.6C337.6 464.3 336.9 465.3 334.9 465.4C324.7 465.8 314.5 466.3 304.2 466.8C303.9 466.5 303.8 466.1 303.6 465.7Z" fill="#7456F1"/>
</g>
<mask id="mask16_290_14" style="mask-type:luminance" maskUnits="userSpaceOnUse" x="0" y="0" width="602" height="585">
<path d="M601.5 0H0V585H601.5V0Z" fill="white"/>
</mask>
<g mask="url(#mask16_290_14)">
<path d="M103.5 433C150.6 428.3 196.3 419.6 241.1 405.9C238.7 407.6 236.2 409.2 233.8 410.9C226.1 416.1 218.5 421.5 210.7 426.5C209.4 427.3 207.3 427.5 205.8 427.1C200.8 426 195.9 424.4 191 423.2C190.1 423 188.7 423.4 187.9 423.9C180.1 429.1 172.2 434.2 164.6 439.7C159 443.8 153.3 446.6 146 447C130 448.1 116.1 444 103.5 433Z" fill="#7456F1"/>
</g>
<mask id="mask17_290_14" style="mask-type:luminance" maskUnits="userSpaceOnUse" x="0" y="0" width="602" height="585">
<path d="M601.5 0H0V585H601.5V0Z" fill="white"/>
</mask>
<g mask="url(#mask17_290_14)">
<path d="M370.799 321.7C367.199 323.2 364.199 323.4 360.899 322.1C346.699 316.6 332.399 311.4 318.099 306.2C317.099 305.8 315.599 306.1 314.599 306.6C307.599 310.6 300.499 306.9 299.799 298.8C299.699 297.7 298.899 296.5 298.099 295.8C295.899 293.9 293.399 292.4 291.299 290.5C286.999 286.7 281.499 287 276.499 286C262.499 283.3 248.399 280.9 234.299 278.5C232.799 278.2 230.799 278.7 229.399 279.6C226.099 281.7 222.499 281.1 219.999 278.1C219.099 277 217.599 276.3 216.299 275.6C215.799 275.3 214.999 275.3 214.499 275C205.399 270.5 195.699 271.8 186.199 271.7C185.299 271.7 184.399 272.2 183.499 272.5C181.099 273.4 178.499 273.3 177.299 271C176.599 269.8 176.999 267.4 177.699 266.1C179.099 263.9 181.399 264.1 183.699 265C185.399 265.7 187.299 266.1 189.099 266.3C191.399 266.5 193.799 266.5 196.199 266.3C203.799 265.8 211.099 266.5 217.999 270C218.799 270.4 220.399 270.1 221.199 269.6C224.199 267.7 227.299 267.8 230.099 270C231.599 271.2 233.399 272.3 235.299 272.6C252.699 275.8 270.099 278.7 287.499 281.9C289.599 282.3 291.599 283.5 293.499 284.6C295.499 285.8 297.399 287.3 298.999 289C301.399 291.4 303.499 291.9 306.799 290.3C311.999 287.8 318.299 292 318.799 298C318.999 299.8 319.699 300.5 321.299 301.1C335.699 306.6 350.099 312.2 364.499 317.9C366.399 318.9 368.399 320.3 370.799 321.7Z" fill="#7456F1"/>
</g>
<mask id="mask18_290_14" style="mask-type:luminance" maskUnits="userSpaceOnUse" x="0" y="0" width="602" height="585">
<path d="M601.5 0H0V585H601.5V0Z" fill="white"/>
</mask>
<g mask="url(#mask18_290_14)">
<path d="M216.301 432.4C225.201 426.3 234.201 420.5 242.901 414.1C260.301 401.1 280.301 393.2 299.801 384.4C315.101 377.5 330.301 370.1 345.001 361.9C352.601 357.7 359.801 356.6 368.001 358.9C366.601 359.4 365.301 359.9 363.901 360.3C362.401 360.8 360.901 361.5 359.401 361.8C356.001 362.6 353.601 364.6 351.301 367.2C347.101 372.1 342.701 376.8 338.301 381.4C337.601 382.1 336.101 382.7 335.101 382.5C329.701 381.3 324.301 380 319.001 378.4C317.101 377.9 315.601 378.1 314.001 379.1C299.501 388.7 284.901 398.3 270.401 407.9C267.901 409.6 265.601 411 262.301 410.5C258.501 410 255.601 412.5 255.801 416.2C256.001 419.5 254.101 421.5 252.701 423.9C249.201 430.2 243.801 431.8 237.001 431.7C230.201 431.7 223.401 432.5 216.601 433C216.501 432.9 216.401 432.7 216.301 432.4Z" fill="#7456F1"/>
</g>
<mask id="mask19_290_14" style="mask-type:luminance" maskUnits="userSpaceOnUse" x="0" y="0" width="602" height="585">
<path d="M601.5 0H0V585H601.5V0Z" fill="white"/>
</mask>
<g mask="url(#mask19_290_14)">
<path d="M375.199 457.5C376.999 453.9 378.399 451 379.999 448.2C380.799 446.9 381.799 445.6 383.099 444.7C390.699 439.7 398.399 434.9 405.899 429.9C407.099 429.1 408.199 427.7 408.499 426.3C410.099 418.6 411.499 410.8 413.099 403.1C413.299 402.1 414.399 401.3 415.099 400.5C416.299 399.2 418.399 398 418.599 396.6C419.199 391.7 423.499 390.1 426.499 386.3C427.299 393 427.999 398.8 428.599 404.7C429.099 409.7 429.299 414.7 430.099 419.6C430.499 421.9 429.899 423.4 428.399 424.9C414.899 438.7 399.199 449 380.899 455.4C379.199 456.2 377.499 456.7 375.199 457.5Z" fill="#7456F1"/>
</g>
<mask id="mask20_290_14" style="mask-type:luminance" maskUnits="userSpaceOnUse" x="0" y="0" width="602" height="585">
<path d="M601.5 0H0V585H601.5V0Z" fill="white"/>
</mask>
<g mask="url(#mask20_290_14)">
<path d="M284.4 464.2C290.9 455.8 297.4 447.4 303.9 439.1C304.4 438.5 305.5 438.2 306.4 438.1C310.4 437.5 313.1 435.6 314 431.4C314.2 430.6 315.1 429.5 315.8 429.3C318.7 428.4 320.2 426.4 321.7 423.9C326.8 415.7 332.3 407.6 337.7 399.5C338.4 398.5 339.5 397.5 340.6 397.1C348.4 394.4 356.3 391.9 364.2 389.3C364.5 389.2 364.8 389.3 365.4 389.3C363.7 394.7 362.1 399.9 360.2 405.1C359.8 406.2 358.5 407.3 357.4 407.8C351.1 410.4 344.7 412.7 338.4 415.3C337.1 415.8 335.7 417 335.1 418.3C332.2 423.7 329.6 429.3 326.7 434.8C326.1 436 324.8 437.4 323.6 437.7C311.4 440.9 304.3 449.7 298.2 459.9C294.3 466.6 292.3 467.1 284.4 464.2Z" fill="#7456F1"/>
</g>
<mask id="mask21_290_14" style="mask-type:luminance" maskUnits="userSpaceOnUse" x="0" y="0" width="602" height="585">
<path d="M601.5 0H0V585H601.5V0Z" fill="white"/>
</mask>
<g mask="url(#mask21_290_14)">
<path d="M376.399 350.801C371.299 350.201 366.599 350.001 362.099 349.101C357.399 348.201 353.199 348.601 348.899 350.701C336.399 356.801 323.999 362.901 311.199 368.301C305.499 370.701 299.099 371.3 292.899 372.5C288.299 373.4 283.599 373.701 278.999 374.601C277.799 374.801 276.499 376.001 275.699 377.101C273.499 380.101 270.599 381.6 266.999 381.5C263.599 381.4 261.199 379.5 259.699 376.5C257.899 372.9 258.999 368.301 262.199 365.901C265.599 363.301 271.199 362.8 273.599 366C276.599 370 279.999 369.1 283.699 368.5C289.899 367.5 296.099 366.601 302.299 365.301C304.999 364.801 307.599 363.6 310.099 362.5C328.699 354.3 347.299 346.001 365.799 337.701C367.899 336.701 369.099 337.101 370.099 339.201C371.999 343.001 374.099 346.701 376.399 350.801Z" fill="#7456F1"/>
</g>
<mask id="mask22_290_14" style="mask-type:luminance" maskUnits="userSpaceOnUse" x="0" y="0" width="602" height="585">
<path d="M601.5 0H0V585H601.5V0Z" fill="white"/>
</mask>
<g mask="url(#mask22_290_14)">
<path d="M241.9 323.2C253.3 322.2 264.6 321.3 276.1 320.3C276.5 322.2 276.9 323.8 277.3 325.8C269.9 326.4 262.6 327 255.3 327.6C251.4 327.9 247.4 328 243.5 328.4C242.1 328.6 240.5 329.1 239.5 330C233.6 334.9 226.8 333.7 223.3 326.9C223.1 326.5 222.9 326.2 222.6 325.8C211.8 325.8 201 325.8 190.2 325.9C189.3 325.9 188.2 326.8 187.6 327.6C185.3 331 181 332.9 177.4 331.9C173.4 330.8 170.9 327.6 170.8 323.4C170.7 319.3 172.9 316.3 176.8 315C180.8 313.6 185 315.1 187.6 318.5C188.3 319.4 189.8 320.3 190.9 320.3C201 320.4 211 320.4 221.1 320.3C222.1 320.3 223.5 319.9 224.1 319.1C230.1 312.1 238 313.3 241.5 321.9C241.4 322.3 241.6 322.6 241.9 323.2Z" fill="#7456F1"/>
</g>
<mask id="mask23_290_14" style="mask-type:luminance" maskUnits="userSpaceOnUse" x="0" y="0" width="602" height="585">
<path d="M601.5 0H0V585H601.5V0Z" fill="white"/>
</mask>
<g mask="url(#mask23_290_14)">
<path d="M255.6 459.4C259.9 453.6 263.4 448.2 267.6 443.4C269.2 441.6 272.2 440.5 274.7 440.2C282.1 439.3 286.8 435.3 289.6 428.6C290.6 426.3 292.6 424.3 293.5 422C295.1 417.9 298.1 416.1 302.2 415.3C308.3 414 314.3 412.2 320.4 410.6C320.5 410.6 320.6 410.7 320.9 410.8C317.9 414.9 315.1 418.9 312 422.9C311.6 423.5 310.2 423.7 309.4 423.5C302.8 421.5 298.4 424.9 298.5 431.7C298.5 432.8 298.1 434 297.5 434.9C290.8 443.6 284 452.3 277.3 461.1C276.1 462.7 275.1 463.5 272.8 462.9C267.4 461.5 261.8 460.6 255.6 459.4Z" fill="#7456F1"/>
</g>
<mask id="mask24_290_14" style="mask-type:luminance" maskUnits="userSpaceOnUse" x="0" y="0" width="602" height="585">
<path d="M601.5 0H0V585H601.5V0Z" fill="white"/>
</mask>
<g mask="url(#mask24_290_14)">
<path d="M265.7 350.3C260.1 350.9 254.7 351.4 249.3 352C239.4 353 229.6 354 219.7 355C218.4 355.1 217.1 355 215.9 355.2C211.8 355.9 207.6 355.3 203.9 358.8C199.4 363 192.2 361.3 189.3 356.2C186.2 350.8 188.2 344.2 193.7 341.5C199.2 338.8 205.2 341.5 207.5 347.7C207.8 348.4 208.1 349 208.5 350C213.1 349.7 217.8 349.4 222.4 349C230.6 348.3 238.7 347.4 246.9 346.6C251.2 346.2 255.6 345.7 259.9 345.3C264.7 344.9 264.7 344.9 265.7 350.3Z" fill="#7456F1"/>
</g>
<mask id="mask25_290_14" style="mask-type:luminance" maskUnits="userSpaceOnUse" x="0" y="0" width="602" height="585">
<path d="M601.5 0H0V585H601.5V0Z" fill="white"/>
</mask>
<g mask="url(#mask25_290_14)">
<path d="M494.2 318.7C493 314.9 491.9 311.4 491 307.9C490.8 307 491.2 305.8 491.7 305C494.3 301 497 297 499.8 292.7C510 296.1 520.2 299.5 530.3 303C530.3 303.5 530.3 304 530.3 304.5C518.6 309.7 506.3 313.5 494.2 318.7Z" fill="#7456F1"/>
</g>
<mask id="mask26_290_14" style="mask-type:luminance" maskUnits="userSpaceOnUse" x="0" y="0" width="602" height="585">
<path d="M601.5 0H0V585H601.5V0Z" fill="white"/>
</mask>
<g mask="url(#mask26_290_14)">
<path d="M235.6 454.4C240.7 450.1 245.2 446.4 249.6 442.5C250.8 441.5 251.4 439.9 252.3 438.6C252.9 437.6 253.3 436.5 254 435.5C255.9 432.9 257.9 430.4 259.7 427.7C261.1 425.6 262.6 423.9 265.3 423.4C266.3 423.2 267.6 422.5 267.9 421.8C269 418.8 271.4 418.7 274 418.6C278.2 418.3 282.5 417.8 287.2 417.4C284.7 421.6 282.6 425.3 280.3 429C279.9 429.7 279.1 430.2 278.4 430.5C276.9 431.1 275.5 431.8 273.9 432.1C266.3 433.6 261.1 438.3 257 444.6C254.5 448.3 251.6 451.7 249 455.4C247.9 456.9 246.9 457.5 245 457C242.1 456 239.2 455.4 235.6 454.4Z" fill="#7456F1"/>
</g>
<mask id="mask27_290_14" style="mask-type:luminance" maskUnits="userSpaceOnUse" x="0" y="0" width="602" height="585">
<path d="M601.5 0H0V585H601.5V0Z" fill="white"/>
</mask>
<g mask="url(#mask27_290_14)">
<path d="M282.699 409.2C286.799 406.4 290.899 403.6 295.099 400.9C301.899 396.5 308.699 392.1 315.599 387.8C316.399 387.3 317.699 387.1 318.699 387.3C323.599 388.3 328.399 389.5 333.899 390.8C329.499 395.4 327.199 401.1 320.199 402.4C311.599 404 303.299 406.9 294.799 408.8C290.999 409.7 286.899 409.7 282.899 410C282.899 409.8 282.799 409.5 282.699 409.2Z" fill="#7456F1"/>
</g>
<mask id="mask28_290_14" style="mask-type:luminance" maskUnits="userSpaceOnUse" x="0" y="0" width="602" height="585">
<path d="M601.5 0H0V585H601.5V0Z" fill="white"/>
</mask>
<g mask="url(#mask28_290_14)">
<path d="M378.1 365.6C376.3 369.7 375 373.1 373.4 376.3C373 377.2 371.8 378 370.8 378.3C362.5 381.2 354.2 384.1 345.5 386.3C350.2 381.1 354.7 375.7 359.5 370.6C360.4 369.7 362.2 369.5 363.6 369.1C368.2 368 372.8 366.9 378.1 365.6Z" fill="#7456F1"/>
</g>
<mask id="mask29_290_14" style="mask-type:luminance" maskUnits="userSpaceOnUse" x="0" y="0" width="602" height="585">
<path d="M601.5 0H0V585H601.5V0Z" fill="white"/>
</mask>
<g mask="url(#mask29_290_14)">
<path d="M171 444.7C176.9 440.6 182.8 436.4 188.8 432.4C189.6 431.9 190.9 431.5 191.8 431.7C197.5 433.1 203.1 434.6 209.3 436.2C204.9 438.9 201 441.3 197.1 443.6C196.4 444 195.1 444.1 194.3 443.8C187.8 440.9 181.6 443.3 175.2 444.3C173.9 444.5 172.5 444.8 171.2 445.1C171.2 445 171.1 444.9 171 444.7Z" fill="#7456F1"/>
</g>
<mask id="mask30_290_14" style="mask-type:luminance" maskUnits="userSpaceOnUse" x="0" y="0" width="602" height="585">
<path d="M601.5 0H0V585H601.5V0Z" fill="white"/>
</mask>
<g mask="url(#mask30_290_14)">
<path d="M207.9 446.9C218.1 441.7 229 439.3 241.3 439.7C236.6 443.7 232.2 447.5 227.6 451.3C227.1 451.7 226 451.5 225.2 451.3C219.4 449.9 213.6 448.4 207.9 446.9Z" fill="#7456F1"/>
</g>
<mask id="mask31_290_14" style="mask-type:luminance" maskUnits="userSpaceOnUse" x="0" y="0" width="602" height="585">
<path d="M601.5 0H0V585H601.5V0Z" fill="white"/>
</mask>
<g mask="url(#mask31_290_14)">
<path d="M114 180.6C117 179.2 120.2 177.2 120.7 173C123.3 176.1 125.7 178.9 127.9 181.4C125.9 183.4 123.4 185.9 121.2 188.2C119 185.9 116.6 183.3 114 180.6Z" fill="#7456F1"/>
</g>
<mask id="mask32_290_14" style="mask-type:luminance" maskUnits="userSpaceOnUse" x="0" y="0" width="602" height="585">
<path d="M601.5 0H0V585H601.5V0Z" fill="white"/>
</mask>
<g mask="url(#mask32_290_14)">
<path d="M148.8 300.8C150.9 303.1 153.1 305.6 155.2 307.9C153.2 309.8 151 311.9 149.7 313.1C148 311 146 308.7 144 306.4C143.5 307 142.9 307.6 142.4 308.1C144.5 305.6 146.7 303.2 148.8 300.8Z" fill="#7456F1"/>
</g>
<mask id="mask33_290_14" style="mask-type:luminance" maskUnits="userSpaceOnUse" x="0" y="0" width="602" height="585">
<path d="M601.5 0H0V585H601.5V0Z" fill="white"/>
</mask>
<g mask="url(#mask33_290_14)">
<path d="M385.201 264.9C383.201 267 381.201 269.1 379.101 271.1C380.001 271.3 380.901 271.5 381.701 271.6C379.901 269.2 378.001 266.8 376.201 264.4C375.601 265.1 374.901 265.8 374.301 266.5C376.401 264.1 378.601 261.8 380.701 259.4C382.501 261.6 384.601 264.1 386.701 266.5C386.201 266 385.701 265.5 385.201 264.9Z" fill="#7456F1"/>
</g>
<mask id="mask34_290_14" style="mask-type:luminance" maskUnits="userSpaceOnUse" x="0" y="0" width="602" height="585">
<path d="M601.5 0H0V585H601.5V0Z" fill="white"/>
</mask>
<g mask="url(#mask34_290_14)">
<path d="M111.899 234.5C109.799 236.7 107.799 238.9 105.699 241C106.499 241 107.299 240.9 108.099 240.9C105.899 238.8 103.799 236.7 101.699 234.7C102.799 233.5 104.999 231.3 107.099 229.1C108.799 231.1 110.899 233.5 112.999 235.9C112.599 235.4 112.199 235 111.899 234.5Z" fill="#7456F1"/>
</g>
<mask id="mask35_290_14" style="mask-type:luminance" maskUnits="userSpaceOnUse" x="0" y="0" width="602" height="585">
<path d="M601.5 0H0V585H601.5V0Z" fill="white"/>
</mask>
<g mask="url(#mask35_290_14)">
<path d="M160.1 213C162 210.9 163.5 209.2 165 207.6C171 214.4 171.2 211.9 165.2 217.7C163.5 216.1 161.8 214.6 160.1 213Z" fill="#7456F1"/>
</g>
<mask id="mask36_290_14" style="mask-type:luminance" maskUnits="userSpaceOnUse" x="0" y="0" width="602" height="585">
<path d="M601.5 0H0V585H601.5V0Z" fill="white"/>
</mask>
<g mask="url(#mask36_290_14)">
<path d="M332.399 181.9C330.699 183.7 329.299 185.2 327.899 186.7C327.599 186.6 327.299 186.6 327.199 186.5C325.799 184.8 323.299 183 323.399 181.4C323.499 179.7 326.099 178.2 327.699 176.4C329.299 178.2 330.799 180 332.399 181.9Z" fill="#7456F1"/>
</g>
<mask id="mask37_290_14" style="mask-type:luminance" maskUnits="userSpaceOnUse" x="0" y="0" width="602" height="585">
<path d="M601.5 0H0V585H601.5V0Z" fill="white"/>
</mask>
<g mask="url(#mask37_290_14)">
<path d="M226.501 366.6C228.001 368.4 229.501 370.1 231.001 371.9C229.201 373.5 227.601 375 226.001 376.5C221.501 371.4 221.501 371.4 226.501 366.6Z" fill="#7456F1"/>
</g>
<mask id="mask38_290_14" style="mask-type:luminance" maskUnits="userSpaceOnUse" x="0" y="0" width="602" height="585">
<path d="M601.5 0H0V585H601.5V0Z" fill="white"/>
</mask>
<g mask="url(#mask38_290_14)">
<path d="M270.8 163.5C272.3 165.3 273.6 166.9 275 168.7C273.6 170.3 272.2 171.7 270.9 173.1C265.5 169.1 265.5 169.1 270.8 163.5Z" fill="#7456F1"/>
</g>
<mask id="mask39_290_14" style="mask-type:luminance" maskUnits="userSpaceOnUse" x="0" y="0" width="602" height="585">
<path d="M601.5 0H0V585H601.5V0Z" fill="white"/>
</mask>
<g mask="url(#mask39_290_14)">
<path d="M202.4 162.1C200.8 163.8 199.5 165.2 198.3 166.6C193.2 162.9 193.2 162.9 198.1 157.1C199.5 158.8 200.9 160.4 202.4 162.1Z" fill="#7456F1"/>
</g>
<mask id="mask40_290_14" style="mask-type:luminance" maskUnits="userSpaceOnUse" x="0" y="0" width="602" height="585">
<path d="M601.5 0H0V585H601.5V0Z" fill="white"/>
</mask>
<g mask="url(#mask40_290_14)">
<path d="M248.1 163.5C246.7 165 245.5 166.2 244.4 167.4C244.3 167.5 244 167.6 243.9 167.7C238.9 163.9 238.9 163.3 243.9 158.6C245.1 160.2 246.5 161.8 248.1 163.5Z" fill="#7456F1"/>
</g>
<mask id="mask41_290_14" style="mask-type:luminance" maskUnits="userSpaceOnUse" x="0" y="0" width="602" height="585">
<path d="M601.5 0H0V585H601.5V0Z" fill="white"/>
</mask>
<g mask="url(#mask41_290_14)">
<path d="M288.8 202.8C284.2 199.3 284.2 198.3 288.8 193.9C293.8 198.3 293.8 198.8 288.8 202.8Z" fill="#7456F1"/>
</g>
<mask id="mask42_290_14" style="mask-type:luminance" maskUnits="userSpaceOnUse" x="0" y="0" width="602" height="585">
<path d="M601.5 0H0V585H601.5V0Z" fill="white"/>
</mask>
<g mask="url(#mask42_290_14)">
<path d="M152.5 197C147.4 192.6 147.7 193.7 152.7 188.7C157.4 192.8 158.4 193.1 152.5 197Z" fill="#7456F1"/>
</g>
<mask id="mask43_290_14" style="mask-type:luminance" maskUnits="userSpaceOnUse" x="0" y="0" width="602" height="585">
<path d="M601.5 0H0V585H601.5V0Z" fill="white"/>
</mask>
<g mask="url(#mask43_290_14)">
<path d="M448 286.3C456.7 286.3 464.1 293.5 464.1 302.1C464.1 310.6 457 317.7 448.5 317.7C440 317.7 432.6 310.5 432.6 302C432.6 293.4 439.5 286.4 448 286.3ZM456.2 302.2C456.2 297.7 452.8 294.3 448.3 294.3C444.1 294.3 440.6 297.8 440.7 302.1C440.7 306.3 444 309.7 448.1 309.7C452.4 309.6 456.2 306.1 456.2 302.2Z" fill="#7456F1"/>
</g>
</svg>
