<svg width="86" height="91" viewBox="0 0 86 91" fill="none" xmlns="http://www.w3.org/2000/svg">
<g clip-path="url(#clip0_167_56)">
<mask id="mask0_167_56" style="mask-type:luminance" maskUnits="userSpaceOnUse" x="1" y="-11" width="86" height="92">
<path d="M87 -10.5781H1V80.4219H87V-10.5781Z" fill="white"/>
</mask>
<g mask="url(#mask0_167_56)">
<path d="M24.9902 14.2874C25.7194 13.9779 26.1598 13.449 26.3943 12.6494C26.6916 13.3867 27.0248 14.0323 27.8026 14.2594C27.0562 14.5316 26.643 15.0807 26.4229 15.8787C26.1441 15.129 25.7323 14.5503 24.9902 14.2874Z" fill="#7456F1"/>
</g>
<mask id="mask1_167_56" style="mask-type:luminance" maskUnits="userSpaceOnUse" x="1" y="-11" width="86" height="92">
<path d="M87 -10.5781H1V80.4219H87V-10.5781Z" fill="white"/>
</mask>
<g mask="url(#mask1_167_56)">
<path d="M18.3555 21.3328C18.7901 21.1197 19.2434 20.7993 19.3105 20.1553C19.6866 20.6313 20.0283 21.0668 20.3357 21.4573C20.0497 21.7715 19.6923 22.1635 19.3792 22.5088C19.0832 22.1713 18.7286 21.7622 18.3555 21.3328Z" fill="#7456F1"/>
</g>
<mask id="mask2_167_56" style="mask-type:luminance" maskUnits="userSpaceOnUse" x="1" y="-11" width="86" height="92">
<path d="M87 -10.5781H1V80.4219H87V-10.5781Z" fill="white"/>
</mask>
<g mask="url(#mask2_167_56)">
<path d="M38.9637 15.3284C38.6577 15.0033 38.3503 14.6798 38.0444 14.3546C37.99 14.4293 37.9371 14.5055 37.8828 14.5802C38.1902 14.2178 38.4976 13.8538 38.785 13.5146C39.0595 13.8444 39.3569 14.2038 39.6371 14.5413C39.364 14.8509 39.0624 15.1915 38.7607 15.5322C38.8279 15.4653 38.8951 15.3969 38.9637 15.3284Z" fill="#7456F1"/>
</g>
<mask id="mask3_167_56" style="mask-type:luminance" maskUnits="userSpaceOnUse" x="1" y="-11" width="86" height="92">
<path d="M87 -10.5781H1V80.4219H87V-10.5781Z" fill="white"/>
</mask>
<g mask="url(#mask3_167_56)">
<path d="M24.9473 26.3722C25.2232 26.0393 25.4362 25.7826 25.6493 25.5244C26.5014 26.5822 26.5286 26.1871 25.6807 27.1033C25.4405 26.8637 25.2003 26.6242 24.9473 26.3722Z" fill="#7456F1"/>
</g>
<mask id="mask4_167_56" style="mask-type:luminance" maskUnits="userSpaceOnUse" x="1" y="-11" width="86" height="92">
<path d="M87 -10.5781H1V80.4219H87V-10.5781Z" fill="white"/>
</mask>
<g mask="url(#mask4_167_56)">
<path d="M49.5943 21.5396C49.3512 21.8211 49.1454 22.0591 48.9452 22.2925C48.8994 22.2769 48.8608 22.2769 48.8451 22.2551C48.6478 21.9938 48.2875 21.7154 48.3032 21.4665C48.3204 21.2005 48.6921 20.9625 48.9237 20.6934C49.1396 20.9687 49.3555 21.2394 49.5943 21.5396Z" fill="#7456F1"/>
</g>
<mask id="mask5_167_56" style="mask-type:luminance" maskUnits="userSpaceOnUse" x="1" y="-11" width="86" height="92">
<path d="M87 -10.5781H1V80.4219H87V-10.5781Z" fill="white"/>
</mask>
<g mask="url(#mask5_167_56)">
<path d="M40.7768 18.6758C40.9841 18.9542 41.1728 19.2062 41.3787 19.4816C41.1742 19.7242 40.9841 19.9482 40.7954 20.1722C40.0219 19.5562 40.0219 19.5562 40.7768 18.6758Z" fill="#7456F1"/>
</g>
<mask id="mask6_167_56" style="mask-type:luminance" maskUnits="userSpaceOnUse" x="1" y="-11" width="86" height="92">
<path d="M87 -10.5781H1V80.4219H87V-10.5781Z" fill="white"/>
</mask>
<g mask="url(#mask6_167_56)">
<path d="M30.9986 18.4638C30.7699 18.736 30.5869 18.9538 30.4067 19.1669C29.6747 18.5851 29.6747 18.5851 30.3738 17.6953C30.5826 17.952 30.787 18.2024 30.9986 18.4638Z" fill="#7456F1"/>
</g>
<mask id="mask7_167_56" style="mask-type:luminance" maskUnits="userSpaceOnUse" x="1" y="-11" width="86" height="92">
<path d="M87 -10.5781H1V80.4219H87V-10.5781Z" fill="white"/>
</mask>
<g mask="url(#mask7_167_56)">
<path d="M37.5291 18.6847C37.3276 18.9149 37.1617 19.1047 36.9944 19.2945C36.9744 19.3178 36.9444 19.3303 36.9186 19.3489C36.2009 18.7609 36.198 18.6583 36.9158 17.9287C37.1117 18.1698 37.3075 18.4125 37.5291 18.6847Z" fill="#7456F1"/>
</g>
<mask id="mask8_167_56" style="mask-type:luminance" maskUnits="userSpaceOnUse" x="1" y="-11" width="86" height="92">
<path d="M87 -10.5781H1V80.4219H87V-10.5781Z" fill="white"/>
</mask>
<g mask="url(#mask8_167_56)">
<path d="M43.3566 24.7983C42.6932 24.2508 42.6932 24.1014 43.3594 23.417C44.0672 24.0921 44.0672 24.1637 43.3566 24.7983Z" fill="#7456F1"/>
</g>
<mask id="mask9_167_56" style="mask-type:luminance" maskUnits="userSpaceOnUse" x="1" y="-11" width="86" height="92">
<path d="M87 -10.5781H1V80.4219H87V-10.5781Z" fill="white"/>
</mask>
<g mask="url(#mask9_167_56)">
<path d="M23.8625 23.8903C23.1404 23.2121 23.1733 23.3708 23.8853 22.5977C24.5688 23.2401 24.7032 23.2759 23.8625 23.8903Z" fill="#7456F1"/>
</g>
<mask id="mask10_167_56" style="mask-type:luminance" maskUnits="userSpaceOnUse" x="1" y="-11" width="86" height="92">
<path d="M87 -10.5781H1V80.4219H87V-10.5781Z" fill="white"/>
</mask>
<g mask="url(#mask10_167_56)">
<path d="M63.5385 54.3012C63.4356 53.4021 63.2826 52.6679 63.2797 51.9321C63.2712 48.9734 62.3661 46.2994 61.1451 43.7219C60.8849 43.1743 60.7619 42.6221 60.7777 42.003C60.8063 40.9203 60.7691 39.8361 60.7905 38.7534C60.7977 38.4283 60.6933 38.2883 60.4259 38.1857C58.9747 37.6288 57.5278 37.0548 56.0809 36.4854C55.9808 36.4465 55.885 36.3952 55.7363 36.3252C57.6594 34.2377 59.5252 32.1081 62.1974 31.2121C65.4558 30.1185 68.3096 30.8901 70.6959 33.575C71.0247 33.9452 71.3379 34.331 71.6767 34.7323C71.2664 35.3965 70.8846 36.0359 70.4814 36.6565C70.3213 36.9039 70.2412 37.1185 70.3528 37.4281C70.4872 37.7952 70.5157 38.2105 70.6659 38.5668C70.9147 39.1548 70.786 39.5452 70.3542 39.9885C68.8558 41.5223 68.0251 43.4948 67.416 45.5901C66.7197 47.9841 65.9377 50.3361 64.668 52.4579C64.3249 53.035 63.9675 53.6043 63.5385 54.3012ZM65.0512 33.9608C63.8273 33.967 62.8422 35.059 62.8522 36.3999C62.8622 37.719 63.9103 38.8405 65.1298 38.8405C66.3437 38.839 67.3574 37.7377 67.3546 36.4201C67.3531 35.0808 66.2994 33.9561 65.0512 33.9608Z" fill="#7456F1"/>
</g>
<mask id="mask11_167_56" style="mask-type:luminance" maskUnits="userSpaceOnUse" x="1" y="-11" width="86" height="92">
<path d="M87 -10.5781H1V80.4219H87V-10.5781Z" fill="white"/>
</mask>
<g mask="url(#mask11_167_56)">
<path d="M50.6179 34.7217C50.738 34.5117 50.8753 34.2737 51.0383 33.9874C50.6193 33.4881 50.1818 32.9857 49.7643 32.4614C48.642 31.0521 47.5253 29.6366 46.4144 28.2163C46.1714 27.9052 45.974 27.6626 45.5108 27.7994C44.9975 27.9503 44.3827 27.5086 44.1625 26.9859C43.9052 26.3777 44.0081 25.6014 44.4585 25.1908C44.6887 24.9808 44.693 24.8003 44.6444 24.511C44.1854 21.7654 43.7508 19.0137 43.2932 16.2681C43.2589 16.0581 43.1345 15.8481 43.0087 15.6754C42.4726 14.9397 42.5369 13.9783 43.1917 13.5257C43.6478 13.2099 44.1297 13.2083 44.6129 13.4992C45.1376 13.815 45.2449 14.333 45.1805 14.9039C45.1176 15.4577 44.8302 15.8497 44.3069 15.9912C44.204 16.0192 44.1054 16.0612 43.9424 16.1203C44.0696 16.9074 44.1826 17.6899 44.327 18.4677C44.6887 20.4168 45.0576 22.3643 45.4479 24.3057C45.4836 24.4799 45.6681 24.693 45.8268 24.7521C46.6089 25.0414 47.0263 25.9017 46.7876 26.7837C46.7461 26.9392 46.7089 27.1788 46.7833 27.2768C47.9128 28.7623 49.0595 30.2308 50.2376 31.7474C50.2705 31.6448 50.3005 31.5919 50.3019 31.539C50.3262 30.055 50.3448 28.5726 50.3691 27.0886C50.3748 26.765 50.3319 26.5488 49.9674 26.4383C49.4469 26.2812 49.058 25.4754 49.1138 24.8672C49.1853 24.1019 49.6685 23.5108 50.3334 23.3739C50.9296 23.251 51.5487 23.573 51.8461 24.1563C52.2335 24.917 52.0377 25.7819 51.3871 26.3201C51.267 26.4197 51.1626 26.6297 51.1584 26.793C51.1126 28.6255 51.0869 30.4579 51.0568 32.2903C51.0497 32.7523 51.6673 33.5908 52.0362 33.555C53.2858 33.4352 54.3195 34.9192 53.4116 36.5183C54.1037 36.8699 54.7728 37.2541 55.4719 37.5559C56.7173 38.0926 57.9783 38.5903 59.2393 39.0819C59.5339 39.197 59.6325 39.3572 59.6182 39.6963C59.5911 40.3714 59.6097 41.0481 59.6097 41.7123C58.32 41.4588 57.4293 40.5394 56.447 39.7974C55.2918 38.9248 54.1365 38.0506 52.9713 37.195C52.8383 37.097 52.6324 37.0706 52.4651 37.083C51.6345 37.1468 51.0668 36.8123 50.6622 36.0206C50.5822 35.8634 50.4349 35.7266 50.2905 35.6317C49.0866 34.8446 47.8728 34.073 46.6675 33.2874C44.9832 32.1877 43.1245 31.6074 41.2444 31.0817C40.9513 30.9992 40.6596 30.9168 40.3465 30.8281C40.398 30.5574 40.4495 30.2883 40.5181 29.9274C41.5261 30.2168 42.5298 30.5046 43.6507 30.8266C43.289 30.2697 42.9901 29.8061 42.6885 29.3426C41.8764 28.0934 41.0671 26.8412 40.2479 25.5983C40.1606 25.4646 40.0119 25.3121 39.879 25.295C39.41 25.2359 39.1498 24.9326 38.9468 24.5126C38.8724 24.3601 38.7824 24.175 38.6537 24.1019C37.4641 23.4283 36.2588 22.7874 35.0707 22.1108C34.8534 21.9879 34.6546 21.7748 34.5131 21.5554C34.0756 20.8772 33.671 20.1757 33.2449 19.4679C32.6644 19.7603 32.1426 19.7152 31.6736 19.2906C30.9773 18.6606 30.933 17.5017 31.6436 16.8966C31.9781 16.6119 32.0496 16.3257 32.0096 15.929C31.8552 14.3937 31.7022 12.8583 31.5506 11.337C30.5469 10.8314 30.1909 10.1999 30.3611 9.25567C30.4912 8.52611 31.1046 7.99567 31.8552 7.96145C32.5629 7.92878 33.172 8.43745 33.3679 9.22611C33.5695 10.0381 33.242 10.721 32.3742 11.2328C32.4428 12.037 32.5043 12.863 32.5844 13.6859C32.6616 14.4777 32.7431 15.2694 32.8603 16.055C32.8875 16.2401 33.0304 16.4688 33.1791 16.559C33.9126 17.0023 34.1843 17.6479 34.0055 18.5532C33.9684 18.7414 33.9941 18.9903 34.0813 19.1552C34.4073 19.7743 34.7647 20.3748 35.1222 20.9737C35.2022 21.109 35.3138 21.2459 35.4424 21.319C36.6048 21.9801 37.7729 22.6257 38.9411 23.2759C39.004 23.3117 39.0755 23.3272 39.2456 23.3894C39.1913 23.1079 39.1713 22.9057 39.1126 22.7174C38.8467 21.8681 38.5636 21.0266 38.3005 20.1757C38.2062 19.8723 38.1147 19.6234 37.8087 19.4632C37.4656 19.2843 37.3469 18.7414 37.487 18.3697C37.6271 17.9963 38.0131 17.7723 38.3963 17.8828C38.7909 17.9948 39.0926 18.2903 38.9911 18.7414C38.8024 19.5783 39.2141 20.2519 39.3986 20.9877C39.4858 21.3392 39.6517 21.6674 39.7303 22.0206C39.8375 22.509 40.0077 22.8341 40.5124 23.0037C41.1457 23.2168 41.323 23.9557 41.06 24.6557C40.9985 24.8206 40.9885 25.0943 41.0757 25.2266C42.3525 27.1943 43.6478 29.1466 44.9446 31.0972C45.0304 31.2263 45.1662 31.329 45.2963 31.4099C47.0549 32.5128 48.8178 33.6063 50.6179 34.7217Z" fill="#7456F1"/>
</g>
<mask id="mask12_167_56" style="mask-type:luminance" maskUnits="userSpaceOnUse" x="1" y="-11" width="86" height="92">
<path d="M87 -10.5781H1V80.4219H87V-10.5781Z" fill="white"/>
</mask>
<g mask="url(#mask12_167_56)">
<path d="M20.496 73.7548C19.8026 74.8219 19.0977 75.8797 18.42 76.9592C17.8409 77.8801 17.0474 77.8941 16.4612 76.9608C15.7707 75.8657 15.0829 74.7675 14.2808 73.6848C14.2808 73.8481 14.2808 74.0115 14.2808 74.1732C14.2808 76.0228 14.268 77.8739 14.288 79.7235C14.2923 80.1559 14.1279 80.2819 13.7776 80.2788C13.3329 80.2741 12.8883 80.2648 12.445 80.2897C12.0261 80.313 11.8731 80.1232 11.8774 79.6721C11.8917 78.0886 11.886 76.505 11.886 74.9215C11.886 72.9708 11.8946 71.0217 11.8731 69.071C11.8688 68.6495 12.019 68.5017 12.3721 68.5001C12.8768 68.497 13.3872 68.4441 13.8862 68.497C14.0807 68.5188 14.3109 68.7319 14.4267 68.9264C15.4046 70.5706 16.3611 72.2304 17.3234 73.8855C17.3563 73.9415 17.3934 73.9928 17.4592 74.0893C18.1641 72.8946 18.8518 71.7233 19.5424 70.555C19.8812 69.981 20.2043 69.3961 20.5746 68.8486C20.6905 68.6775 20.9292 68.5328 21.1237 68.5126C21.6255 68.4612 22.1331 68.4939 22.6392 68.4768C22.9094 68.4675 23.0167 68.5717 23.0167 68.8828C23.0095 72.5166 23.0095 76.1504 23.0167 79.7826C23.0167 80.1279 22.8851 80.2741 22.5863 80.2757C22.1274 80.2788 21.667 80.2648 21.208 80.2912C20.772 80.3161 20.609 80.1264 20.6133 79.6488C20.6275 77.7993 20.6175 75.9497 20.6147 74.0986C20.6147 74.0006 20.6075 73.9026 20.6032 73.8061C20.5661 73.7906 20.5303 73.7719 20.496 73.7548Z" fill="#7456F1"/>
</g>
<mask id="mask13_167_56" style="mask-type:luminance" maskUnits="userSpaceOnUse" x="1" y="-11" width="86" height="92">
<path d="M87 -10.5781H1V80.4219H87V-10.5781Z" fill="white"/>
</mask>
<g mask="url(#mask13_167_56)">
<path d="M44.055 73.7766C45.5133 73.7766 46.9288 73.7766 48.39 73.7766C48.39 74.2697 48.39 74.7177 48.39 75.1642C48.39 76.6653 48.3757 78.1648 48.3971 79.6644C48.4029 80.1015 48.2556 80.2804 47.871 80.2695C47.6265 80.2633 47.372 80.3068 47.139 80.2477C46.9231 80.1933 46.7286 80.0315 46.5456 79.8448C44.8499 80.5526 43.1456 80.6008 41.4943 79.5944C40.3333 78.8866 39.4983 77.8413 39.0265 76.4864C38.0671 73.733 39.1037 70.5659 41.4142 69.1239C43.5617 67.783 46.5742 68.1937 47.931 70.0184C47.402 70.6328 46.873 71.2488 46.4427 71.7481C45.6534 71.451 45.0172 71.0808 44.3466 70.9875C42.8626 70.7806 41.5 72.0857 41.2012 73.6817C40.7737 75.9746 42.7482 78.6206 45.6735 77.5426C45.7678 77.5068 45.8765 77.3435 45.8851 77.2315C45.9122 76.8706 45.8951 76.5066 45.8951 76.0913C45.4147 76.0913 44.9743 76.0928 44.5354 76.0913C44.2137 76.0897 44.0264 75.9746 44.0478 75.5593C44.0764 74.9821 44.055 74.4019 44.055 73.7766Z" fill="#7456F1"/>
</g>
<mask id="mask14_167_56" style="mask-type:luminance" maskUnits="userSpaceOnUse" x="1" y="-11" width="86" height="92">
<path d="M87 -10.5781H1V80.4219H87V-10.5781Z" fill="white"/>
</mask>
<g mask="url(#mask14_167_56)">
<path d="M70.7781 71.0898C70.7781 71.8598 70.7781 72.552 70.7781 73.2847C71.6245 73.2847 72.4337 73.2847 73.243 73.2847C73.8564 73.2847 74.4683 73.2971 75.0817 73.2753C75.4034 73.2644 75.522 73.3967 75.5092 73.742C75.492 74.2413 75.482 74.7438 75.5063 75.2416C75.5277 75.6538 75.3547 75.7471 75.0159 75.7471C73.7448 75.7424 72.4738 75.7611 71.2013 75.7704C71.0669 75.772 70.9311 75.7704 70.7838 75.7704C70.7838 76.4564 70.7838 77.0942 70.7838 77.7787C70.9811 77.7787 71.1327 77.7787 71.2828 77.7787C72.6925 77.7756 74.1008 77.774 75.5106 77.7709C76.1525 77.7693 76.1511 77.7693 76.1497 78.4398C76.1483 78.8893 76.1382 79.3404 76.1525 79.79C76.1626 80.1353 76.0153 80.2769 75.715 80.2769C73.4174 80.2785 71.1198 80.28 68.8222 80.2847C68.4776 80.2847 68.3275 80.1104 68.3275 79.7324C68.3303 76.1329 68.3303 72.5333 68.3203 68.9322C68.3189 68.6522 68.4218 68.5324 68.6549 68.5122C68.8536 68.4951 69.0524 68.4811 69.2511 68.4811C71.35 68.4796 73.4489 68.4811 75.5478 68.4827C76.124 68.4827 76.1411 68.5076 76.1411 69.122C76.1411 69.5887 76.1225 70.0569 76.1511 70.522C76.1769 70.9544 76.041 71.1053 75.6321 71.0991C74.1923 71.0758 72.7526 71.0898 71.3128 71.0898C71.1455 71.0898 70.9797 71.0898 70.7781 71.0898Z" fill="#7456F1"/>
</g>
<mask id="mask15_167_56" style="mask-type:luminance" maskUnits="userSpaceOnUse" x="1" y="-11" width="86" height="92">
<path d="M87 -10.5781H1V80.4219H87V-10.5781Z" fill="white"/>
</mask>
<g mask="url(#mask15_167_56)">
<path d="M33.0153 28.1383C32.4749 27.4026 32.0002 26.757 31.527 26.113C30.925 25.2948 30.3174 24.4812 29.7212 23.6568C29.5653 23.4421 29.4452 23.341 29.1564 23.4546C28.5902 23.6755 28.0555 23.5059 27.658 23.019C27.2606 22.5321 27.2291 21.9535 27.3993 21.3343C27.4493 21.1508 27.4393 20.8599 27.3378 20.7292C26.2826 19.3883 25.1974 18.0755 24.1365 16.7423C23.9593 16.5199 23.8134 16.4763 23.5532 16.565C22.9255 16.7766 22.1649 16.4157 21.8632 15.809C21.543 15.165 21.6659 14.3328 22.1549 13.8381C22.5967 13.3917 23.436 13.3046 23.9521 13.6515C24.5183 14.031 24.7828 14.8306 24.6141 15.515C24.5683 15.7001 24.5883 15.9895 24.6941 16.1217C25.7808 17.4735 26.8917 18.8019 27.9912 20.1428C28.1542 20.3419 28.3 20.4275 28.5759 20.3886C29.5854 20.2501 30.3817 21.269 30.1887 22.3735C30.1544 22.5663 30.1859 22.8355 30.2902 22.9817C31.5355 24.7255 32.8009 26.4552 34.0662 28.1835C34.1449 28.2908 34.2735 28.3919 34.3936 28.4215C35.4316 28.6766 36.4739 28.9192 37.5162 29.1526C37.6235 29.1759 37.7464 29.1121 37.8622 29.0872C37.8293 28.9363 37.8322 28.7575 37.7564 28.6377C37.0087 27.4321 36.1494 26.3526 34.9927 25.5732C34.528 25.2606 34.1277 24.8343 33.683 24.4843C33.4686 24.3148 33.2269 24.1795 32.9839 24.0612C32.6508 23.8995 32.3963 23.4421 32.4978 23.0906C32.6107 22.6955 32.8852 22.4948 33.2555 22.4917C33.6101 22.4901 33.9018 22.8697 33.949 23.2819C33.9676 23.4375 34.0433 23.6288 34.152 23.7221C34.8826 24.3521 35.6018 25.0023 36.3753 25.5639C37.2746 26.2188 37.7607 27.2361 38.4141 28.1057C38.63 28.3919 38.7987 28.6361 39.179 28.7186C39.7252 28.8352 40.054 29.4279 40.0255 30.0346C39.9983 30.6008 39.5894 31.1437 39.1033 31.2619C38.5128 31.405 37.8465 31.111 37.6449 30.5246C37.5062 30.1232 37.3075 30.0003 36.9386 29.9241C34.3207 29.3797 31.71 28.7963 29.0935 28.241C28.9849 28.2177 28.809 28.3032 28.7346 28.4012C27.9983 29.3579 26.7015 29.1541 26.3055 27.9781C26.194 27.6499 26.031 27.5068 25.7665 27.3543C24.4582 26.5983 23.1643 25.8143 21.8718 25.0288C21.4715 24.7846 21.1512 24.5683 20.6608 24.9681C20.1003 25.4255 19.2711 25.1983 18.7864 24.6321C18.3389 24.1079 18.2617 23.1823 18.612 22.5352C18.9394 21.9286 19.7043 21.5957 20.3706 21.7683C21.0468 21.9441 21.543 22.5819 21.5344 23.3472C21.5301 23.7035 21.6545 23.8932 21.9233 24.0519C23.3473 24.8872 24.7656 25.7319 26.1868 26.575C26.3684 26.6823 26.4956 26.7275 26.6987 26.5237C27.465 25.7537 28.4916 26.0492 28.9076 27.1148C28.9448 27.2081 29.0292 27.3295 29.1078 27.3466C30.3689 27.6126 31.6356 27.863 33.0153 28.1383Z" fill="#7456F1"/>
</g>
<mask id="mask16_167_56" style="mask-type:luminance" maskUnits="userSpaceOnUse" x="1" y="-11" width="86" height="92">
<path d="M87 -10.5781H1V80.4219H87V-10.5781Z" fill="white"/>
</mask>
<g mask="url(#mask16_167_56)">
<path d="M35.7523 80.2801C34.404 80.2614 34.7043 80.5756 34.1166 79.1041C33.6734 77.9918 33.6806 77.9934 32.5582 78.0027C31.6546 78.0105 30.7496 78.037 29.8474 77.9903C29.3513 77.9638 29.091 78.135 28.9438 78.6498C28.8222 79.0745 28.6063 79.465 28.4519 79.8803C28.3461 80.1634 28.1846 80.2879 27.8943 80.2785C27.3739 80.263 26.8535 80.2894 26.333 80.2847C25.8054 80.2801 25.7111 80.1167 25.9313 79.577C26.8992 77.1939 27.8714 74.8139 28.8423 72.4323C29.3126 71.2796 29.793 70.1316 30.2477 68.9712C30.3792 68.6352 30.5508 68.475 30.8968 68.4967C31.2471 68.5201 31.606 68.5263 31.952 68.4718C32.4009 68.4018 32.6054 68.6212 32.7698 69.0412C33.9193 71.9843 35.086 74.9212 36.247 77.8596C36.4815 78.4538 36.7245 79.0434 36.9533 79.6407C37.1506 80.1603 37.0662 80.2816 36.5329 80.2801C36.2727 80.2801 36.0125 80.2801 35.7523 80.2801ZM30.1991 75.5558C31.0584 75.5558 31.8419 75.5558 32.7183 75.5558C32.298 74.5183 31.9062 73.5492 31.463 72.4541C31.0112 73.5585 30.6137 74.5338 30.1991 75.5558Z" fill="#7456F1"/>
</g>
<mask id="mask17_167_56" style="mask-type:luminance" maskUnits="userSpaceOnUse" x="1" y="-11" width="86" height="92">
<path d="M87 -10.5781H1V80.4219H87V-10.5781Z" fill="white"/>
</mask>
<g mask="url(#mask17_167_56)">
<path d="M53.873 76.7725C53.873 77.5472 53.8716 78.2736 53.873 79C53.8744 80.3565 54.0017 80.2663 52.7192 80.274C52.4747 80.2756 52.2288 80.2663 51.9843 80.2787C51.5468 80.3036 51.3995 80.0858 51.4024 79.616C51.421 76.6838 51.4195 73.7516 51.4238 70.8194C51.4253 70.236 51.4438 69.6512 51.4081 69.0709C51.3838 68.6836 51.5025 68.5063 51.8499 68.5078C53.1953 68.5156 54.5421 68.514 55.8875 68.542C56.7268 68.5592 57.5189 68.7925 58.2052 69.3416C59.4519 70.3403 59.9037 71.7356 59.6621 73.3332C59.4233 74.912 58.5397 76.046 57.1 76.4598C56.2578 76.7009 55.3514 76.6792 54.4735 76.7678C54.2962 76.788 54.1146 76.7725 53.873 76.7725ZM53.9259 74.2105C54.6236 74.2105 55.2685 74.268 55.9004 74.1965C56.6982 74.1063 57.1486 73.5509 57.1843 72.7716C57.2201 71.9985 56.7297 71.244 55.9776 71.1352C55.3099 71.0387 54.6222 71.1149 53.8987 71.1149C53.8987 72.056 53.8973 72.966 53.9002 73.8776C53.9016 73.988 53.9173 74.1 53.9259 74.2105Z" fill="#7456F1"/>
</g>
<mask id="mask18_167_56" style="mask-type:luminance" maskUnits="userSpaceOnUse" x="1" y="-11" width="86" height="92">
<path d="M87 -10.5781H1V80.4219H87V-10.5781Z" fill="white"/>
</mask>
<g mask="url(#mask18_167_56)">
<path d="M52.7497 40.8395C50.9768 41.5488 49.3511 42.2612 47.6855 42.8368C47.0163 43.0686 46.2628 43.0063 45.5465 43.0732C44.4199 43.179 43.2932 43.2755 42.1694 43.3921C42.0608 43.403 41.9264 43.5103 41.8678 43.6161C41.4832 44.299 40.8441 44.5697 40.2335 44.2866C39.6045 43.9941 39.2642 43.2443 39.4672 42.5101C39.5959 42.0466 39.929 41.7728 40.3551 41.6686C40.8884 41.5379 41.3874 41.6701 41.7162 42.1461C41.9192 42.437 42.0894 42.5241 42.4225 42.4899C43.9724 42.325 45.5394 42.2861 47.0749 42.0341C48.0701 41.8708 49.0237 41.4166 49.9974 41.093C49.9959 41.0479 49.9931 41.0028 49.9917 40.9561C49.6971 40.9001 49.4026 40.8348 49.1066 40.7881C47.2208 40.491 45.3364 40.1908 43.4476 39.9123C43.2789 39.8875 43.0588 39.973 42.9186 40.0881C42.504 40.4303 42.0851 40.4723 41.6333 40.2172C41.2229 39.9839 41.0571 39.5452 41.08 38.9588C41.0871 38.7799 40.9985 38.5497 40.8812 38.419C40.3565 37.8357 39.8232 37.2601 39.257 36.7266C39.0583 36.5399 38.7623 36.3859 38.505 36.3781C36.7592 36.3206 35.0135 36.305 33.2663 36.2755C33.0976 36.2723 32.9246 36.2848 32.7631 36.2443C32.3484 36.1401 32.0553 36.2179 31.7308 36.5975C31.126 37.3037 29.9793 37.019 29.649 36.0841C29.4946 35.6486 29.2787 35.4821 28.8984 35.3717C27.8976 35.0808 26.9125 34.7292 25.9102 34.443C25.7143 34.387 25.4484 34.4663 25.2583 34.5737C24.8965 34.779 24.5419 34.8801 24.1659 34.6779C23.8099 34.4866 23.6112 34.1801 23.6298 33.7197C23.6355 33.5921 23.5811 33.4023 23.4939 33.3417C22.5817 32.707 21.6581 32.0926 20.6916 31.4408C20.5915 31.5668 20.4943 31.7115 20.3756 31.8312C19.8881 32.3212 19.2547 32.3912 18.6871 32.0288C18.128 31.6726 17.8793 30.9788 18.0523 30.257C18.1981 29.6426 18.7228 29.1883 19.3262 29.1526C20.0268 29.1106 20.5658 29.4901 20.8017 30.1575C20.866 30.341 20.9761 30.5432 21.1191 30.6475C22.0227 31.2992 22.9363 31.9339 23.8614 32.5499C24.0058 32.6463 24.2331 32.6759 24.4004 32.6339C24.8879 32.5141 25.3083 32.6977 25.5642 33.1643C25.6471 33.3152 25.7873 33.4832 25.9331 33.5315C27.1284 33.9203 28.3279 34.2906 29.5318 34.6421C29.6533 34.6779 29.8464 34.5908 29.955 34.4928C30.7128 33.8177 31.7136 34.0526 32.1154 35.0279C32.2155 35.2706 32.3327 35.3701 32.5901 35.3717C34.6275 35.3935 36.6649 35.451 38.7008 35.4588C39.1384 35.4603 39.4629 35.6066 39.7546 35.9317C40.2907 36.5259 40.8412 37.1061 41.3731 37.705C41.5318 37.8839 41.6476 37.9741 41.9135 37.8932C42.4783 37.7206 43.0016 38.0815 43.2518 38.6539C43.3261 38.825 43.532 39.0117 43.6993 39.0381C45.1305 39.2668 46.5745 39.4146 48 39.6775C49.4355 39.9419 50.8552 40.3075 52.2807 40.6326C52.3994 40.6606 52.5023 40.729 52.7497 40.8395Z" fill="#7456F1"/>
</g>
<mask id="mask19_167_56" style="mask-type:luminance" maskUnits="userSpaceOnUse" x="1" y="-11" width="86" height="92">
<path d="M87 -10.5781H1V80.4219H87V-10.5781Z" fill="white"/>
</mask>
<g mask="url(#mask19_167_56)">
<path d="M59.3183 44.3779C58.4547 44.2783 57.6254 44.1554 56.7919 44.0963C56.3558 44.0652 56.0713 43.9361 55.8626 43.4741C55.4451 42.5532 54.9575 41.6681 54.5014 40.7736C54.9203 40.3692 55.2663 40.4516 55.6853 40.7892C56.4545 41.4099 57.2723 41.9574 58.0715 42.533C58.1344 42.5781 58.2088 42.617 58.2817 42.6294C59.304 42.7959 59.8759 43.4554 60.2176 44.5039C60.5993 45.6736 61.0983 46.7967 61.5559 47.9354C61.6502 48.1703 61.6431 48.3165 61.43 48.4783C61.207 48.6463 61.0311 48.889 60.8224 49.0834C60.545 49.3416 60.3248 49.603 59.8459 49.519C59.1667 49.3992 58.5548 50.1894 58.8107 50.8894C59.1038 51.6874 58.835 52.3859 58.7478 53.1216C58.6735 53.7454 58.5505 54.3645 58.4047 54.9727C58.3503 55.1983 58.2131 55.455 58.0415 55.581C57.0164 56.337 55.9655 57.0479 54.9375 57.7976C54.733 57.947 54.5443 58.1725 54.4299 58.409C54.0897 59.1136 53.7923 59.8432 53.4691 60.5572C53.3991 60.7127 53.309 60.9414 53.1903 60.9756C52.2982 61.2307 51.3974 61.4438 50.3809 61.7005C50.664 60.9087 50.877 60.2725 51.1258 59.6534C51.1801 59.5196 51.3531 59.4076 51.4932 59.3579C51.9107 59.2101 52.2238 58.983 52.3482 58.4821C52.3882 58.3234 52.5627 58.1507 52.7128 58.0885C53.3119 57.8396 53.7336 57.4383 53.9824 56.7725C54.1826 56.2374 54.5229 55.7661 54.733 55.2356C55.1119 54.2821 55.7653 53.6536 56.5989 53.2165C56.952 53.0314 57.1436 52.753 57.2523 52.333C57.9071 49.8145 58.5877 47.3054 59.2582 44.7916C59.2854 44.6843 59.2897 44.5707 59.3183 44.3779Z" fill="#7456F1"/>
</g>
<mask id="mask20_167_56" style="mask-type:luminance" maskUnits="userSpaceOnUse" x="1" y="-11" width="86" height="92">
<path d="M87 -10.5781H1V80.4219H87V-10.5781Z" fill="white"/>
</mask>
<g mask="url(#mask20_167_56)">
<path d="M44.4062 61.8622C44.9038 61.0875 45.3785 60.2926 45.9146 59.5522C46.0748 59.3297 46.395 59.2022 46.6653 59.1259C47.8849 58.7759 48.7985 58.0868 49.1373 56.6837C49.4433 55.4175 50.2726 54.7844 51.3878 54.4671C51.8267 54.3426 52.227 54.0611 52.6645 53.9304C53.2193 53.7655 53.4623 53.3797 53.6039 52.8057C53.8527 51.7977 54.1515 50.8037 54.4417 49.8082C54.4889 49.6479 54.5761 49.4224 54.6934 49.3788C55.1066 49.2248 55.2581 48.8779 55.4154 48.4859C55.7685 47.6039 56.1703 46.7437 56.5263 45.8633C56.6664 45.5179 56.858 45.3997 57.194 45.4573C57.4171 45.4946 57.6501 45.4651 57.9475 45.4651C57.7702 46.1526 57.6158 46.7857 57.4428 47.4111C57.0439 48.8531 56.6421 50.2966 56.2218 51.7308C56.1646 51.9268 56.023 52.1524 55.8629 52.2442C54.9879 52.7497 54.3188 53.4404 53.8856 54.4328C53.5739 55.1499 53.1678 55.8219 52.7718 56.4924C52.5945 56.7926 52.3386 57.0368 52.1513 57.2686C51.8081 57.1488 51.5407 56.9979 51.2634 56.9699C50.5471 56.8968 50.0281 57.5906 50.1596 58.3622C50.1953 58.5737 50.1839 58.8195 50.121 59.0217C49.8694 59.8213 49.5791 60.6053 49.3203 61.4017C49.236 61.6615 49.1273 61.8248 48.8485 61.8373C47.3873 61.9011 45.9261 61.9773 44.4663 62.0488C44.4449 61.9866 44.4248 61.9244 44.4062 61.8622Z" fill="#7456F1"/>
</g>
<mask id="mask21_167_56" style="mask-type:luminance" maskUnits="userSpaceOnUse" x="1" y="-11" width="86" height="92">
<path d="M87 -10.5781H1V80.4219H87V-10.5781Z" fill="white"/>
</mask>
<g mask="url(#mask21_167_56)">
<path d="M15.7969 56.7695C22.531 56.0353 29.0622 54.6928 35.4718 52.5586C35.1229 52.8168 34.7726 53.075 34.4238 53.3348C33.3257 54.1499 32.2362 54.979 31.1225 55.7677C30.9409 55.8953 30.6378 55.917 30.4176 55.8641C29.7056 55.6915 29.0064 55.4488 28.2958 55.2637C28.1629 55.2295 27.9741 55.2933 27.8526 55.3804C26.7345 56.1877 25.6036 56.9795 24.5198 57.8397C23.7163 58.479 22.9071 58.9053 21.8676 58.9753C19.5857 59.1293 17.5927 58.4899 15.7969 56.7695Z" fill="#7456F1"/>
</g>
<mask id="mask22_167_56" style="mask-type:luminance" maskUnits="userSpaceOnUse" x="1" y="-11" width="86" height="92">
<path d="M87 -10.5781H1V80.4219H87V-10.5781Z" fill="white"/>
</mask>
<g mask="url(#mask22_167_56)">
<path d="M54.0104 39.4562C53.4899 39.6896 53.071 39.7285 52.5877 39.5247C50.5561 38.6707 48.5101 37.8571 46.4627 37.0467C46.3211 36.9907 46.1024 37.0265 45.968 37.1105C44.97 37.7327 43.9577 37.1509 43.8519 35.8971C43.8376 35.7322 43.7232 35.544 43.6031 35.4305C43.2915 35.1365 42.9369 34.8985 42.6266 34.6029C42.0161 34.0196 41.2326 34.0553 40.5134 33.9029C38.5103 33.4782 36.4987 33.1033 34.4856 32.7362C34.264 32.6958 33.9794 32.7736 33.7864 32.9058C33.3117 33.2278 32.7942 33.1469 32.4453 32.6756C32.3166 32.5013 32.0993 32.4002 31.9134 32.2805C31.8377 32.2322 31.7333 32.2385 31.6532 32.1949C30.3579 31.4996 28.9681 31.6925 27.5999 31.6831C27.4726 31.6816 27.3411 31.7593 27.2167 31.8122C26.8678 31.9585 26.5089 31.9382 26.3274 31.5805C26.2316 31.3907 26.2773 31.0205 26.3903 30.8198C26.5847 30.476 26.9121 30.5118 27.2453 30.6565C27.4912 30.7638 27.76 30.8291 28.0231 30.8556C28.3576 30.8882 28.6979 30.8836 29.0325 30.8602C30.1148 30.7825 31.1599 30.8913 32.1451 31.442C32.2609 31.5073 32.4853 31.4591 32.6069 31.3736C33.0372 31.0749 33.4804 31.1013 33.8751 31.4311C34.091 31.6116 34.3526 31.7827 34.6142 31.834C37.0977 32.3271 39.587 32.7845 42.0704 33.2791C42.3693 33.3382 42.6595 33.5218 42.9211 33.7007C43.2042 33.8936 43.4745 34.1253 43.7075 34.3851C44.0449 34.7616 44.3452 34.8347 44.8184 34.592C45.5676 34.2078 46.4598 34.8642 46.5327 35.7945C46.5556 36.0807 46.6557 36.1787 46.8859 36.2736C48.9476 37.1307 51.0036 38.0002 53.0567 38.8838C53.377 39.0207 53.6615 39.2431 54.0104 39.4562Z" fill="#7456F1"/>
</g>
<mask id="mask23_167_56" style="mask-type:luminance" maskUnits="userSpaceOnUse" x="1" y="-11" width="86" height="92">
<path d="M87 -10.5781H1V80.4219H87V-10.5781Z" fill="white"/>
</mask>
<g mask="url(#mask23_167_56)">
<path d="M31.916 56.6809C33.1842 55.7351 34.4824 54.8313 35.7149 53.8326C38.2041 51.8166 41.0565 50.5893 43.8502 49.2126C46.042 48.1331 48.2138 46.9882 50.317 45.7189C51.4008 45.0655 52.4316 44.8975 53.6097 45.2491C53.4139 45.3238 53.2223 45.4 53.0278 45.4731C52.8119 45.554 52.5989 45.652 52.3773 45.7111C51.8955 45.8386 51.5423 46.1466 51.2221 46.5511C50.623 47.3071 49.9982 48.0398 49.3634 48.7615C49.2633 48.8751 49.0445 48.9591 48.9073 48.9249C48.1338 48.7398 47.3631 48.5298 46.6011 48.2949C46.3266 48.2093 46.1121 48.2451 45.8819 48.4115C43.8059 49.9064 41.7242 51.3935 39.6496 52.8931C39.2921 53.1529 38.9676 53.3722 38.4886 53.3022C37.9425 53.2213 37.5278 53.6164 37.5578 54.1889C37.585 54.7022 37.3205 55.0071 37.1203 55.3929C36.6156 56.3666 35.845 56.6155 34.877 56.6078C33.9034 56.6 32.9283 56.7369 31.9532 56.8115C31.9418 56.7664 31.9289 56.7229 31.916 56.6809Z" fill="#7456F1"/>
</g>
<mask id="mask24_167_56" style="mask-type:luminance" maskUnits="userSpaceOnUse" x="1" y="-11" width="86" height="92">
<path d="M87 -10.5781H1V80.4219H87V-10.5781Z" fill="white"/>
</mask>
<g mask="url(#mask24_167_56)">
<path d="M64.9342 74.3334C64.9342 76.116 64.9227 77.8987 64.9427 79.6814C64.9485 80.1543 64.7755 80.3036 64.3737 80.288C63.9462 80.2709 63.5158 80.2709 63.0883 80.2927C62.6894 80.3129 62.5465 80.1263 62.5479 79.7C62.5608 76.7849 62.5622 73.8698 62.5636 70.9532C62.5636 70.32 62.5822 69.6854 62.5422 69.0554C62.5136 68.6214 62.6823 68.4876 63.0354 68.4892C63.5101 68.4907 63.9862 68.5078 64.4595 68.4736C64.8655 68.444 64.947 68.6416 64.9442 69.0351C64.9299 70.8007 64.9385 72.5678 64.9385 74.3334C64.9356 74.3334 64.9342 74.3334 64.9342 74.3334Z" fill="#7456F1"/>
</g>
<mask id="mask25_167_56" style="mask-type:luminance" maskUnits="userSpaceOnUse" x="1" y="-11" width="86" height="92">
<path d="M87 -10.5781H1V80.4219H87V-10.5781Z" fill="white"/>
</mask>
<g mask="url(#mask25_167_56)">
<path d="M54.6445 60.5804C54.9047 60.0235 55.0949 59.5708 55.3251 59.1415C55.4352 58.9361 55.5896 58.7292 55.7698 58.6001C56.8535 57.8255 57.9559 57.0804 59.0368 56.3026C59.2026 56.1828 59.3613 55.9526 59.4013 55.7457C59.6358 54.5479 59.8274 53.3408 60.0547 52.143C60.0833 51.9921 60.2377 51.8661 60.3435 51.737C60.5123 51.5332 60.8154 51.3544 60.8411 51.1335C60.9326 50.3666 61.546 50.1192 61.9663 49.5312C62.0764 50.5672 62.1794 51.4819 62.268 52.3966C62.3438 53.1712 62.3681 53.9537 62.4868 54.719C62.5439 55.0846 62.461 55.3101 62.2451 55.5512C60.3164 57.701 58.0645 59.3017 55.4538 60.2926C55.215 60.3828 54.9719 60.4637 54.6445 60.5804Z" fill="#7456F1"/>
</g>
<mask id="mask26_167_56" style="mask-type:luminance" maskUnits="userSpaceOnUse" x="1" y="-11" width="86" height="92">
<path d="M87 -10.5781H1V80.4219H87V-10.5781Z" fill="white"/>
</mask>
<g mask="url(#mask26_167_56)">
<path d="M41.6562 61.6322C42.5899 60.3239 43.5135 59.0235 44.4486 57.7355C44.5186 57.6391 44.6759 57.5924 44.7989 57.5737C45.3722 57.4835 45.7539 57.1833 45.884 56.5362C45.9098 56.4071 46.037 56.2453 46.1486 56.2064C46.5589 56.0648 46.7719 55.7537 46.9935 55.3679C47.727 54.0846 48.5062 52.8324 49.2812 51.5786C49.377 51.4231 49.5328 51.2659 49.6929 51.2068C50.8153 50.7884 51.9448 50.3948 53.0729 49.9966C53.1115 49.9826 53.1587 49.9997 53.243 50.0044C52.9957 50.8382 52.7683 51.6564 52.5024 52.4591C52.4452 52.6302 52.2665 52.8028 52.1064 52.8744C51.2056 53.2773 50.2877 53.6351 49.387 54.0411C49.1982 54.1266 49.0052 54.3102 48.9094 54.5046C48.4919 55.3493 48.1202 56.2219 47.7056 57.0697C47.6155 57.2548 47.4411 57.4679 47.2681 57.5162C45.5237 58.0108 44.5086 59.3766 43.6436 60.9695C43.076 62.0071 42.7786 62.0755 41.6562 61.6322Z" fill="#7456F1"/>
</g>
<mask id="mask27_167_56" style="mask-type:luminance" maskUnits="userSpaceOnUse" x="1" y="-11" width="86" height="92">
<path d="M87 -10.5781H1V80.4219H87V-10.5781Z" fill="white"/>
</mask>
<g mask="url(#mask27_167_56)">
<path d="M54.8117 43.997C54.0825 43.9083 53.4148 43.8679 52.7643 43.7356C52.0966 43.5988 51.4961 43.6548 50.8742 43.9845C49.0941 44.9303 47.3126 45.887 45.4854 46.7176C44.6719 47.0879 43.7525 47.189 42.8732 47.3741C42.2155 47.5125 41.5435 47.5654 40.8873 47.7054C40.7114 47.7428 40.5327 47.9279 40.4183 48.0959C40.1009 48.5579 39.692 48.8021 39.1687 48.7788C38.6826 48.757 38.3409 48.4614 38.1236 48.0041C37.8619 47.4503 38.0235 46.7316 38.4767 46.3505C38.9657 45.9414 39.7621 45.8683 40.1066 46.3661C40.5384 46.9899 41.0274 46.8452 41.555 46.7519C42.4414 46.5932 43.3307 46.4485 44.21 46.2525C44.5918 46.167 44.9621 45.9943 45.3224 45.8216C47.9803 44.5414 50.6368 43.2565 53.2876 41.9592C53.5936 41.8099 53.7551 41.8721 53.9038 42.1863C54.1798 42.7743 54.4829 43.3468 54.8117 43.997Z" fill="#7456F1"/>
</g>
<mask id="mask28_167_56" style="mask-type:luminance" maskUnits="userSpaceOnUse" x="1" y="-11" width="86" height="92">
<path d="M87 -10.5781H1V80.4219H87V-10.5781Z" fill="white"/>
</mask>
<g mask="url(#mask28_167_56)">
<path d="M35.5751 39.6923C37.2122 39.5429 38.8207 39.3967 40.4606 39.2474C40.5206 39.5414 40.5735 39.7949 40.635 40.0967C39.577 40.1916 38.5318 40.2896 37.4867 40.3798C36.9234 40.4281 36.3572 40.4436 35.7953 40.5105C35.5966 40.5338 35.3721 40.6163 35.222 40.7532C34.3813 41.5185 33.4076 41.3241 32.8986 40.2678C32.87 40.2103 32.8343 40.1558 32.7971 40.0921C31.2501 40.0921 29.7045 40.0858 28.1604 40.1045C28.0346 40.1061 27.873 40.2492 27.7944 40.3752C27.4641 40.9087 26.8507 41.2058 26.3303 41.0487C25.7541 40.8745 25.4024 40.3845 25.3909 39.7343C25.3795 39.0996 25.6883 38.6267 26.2502 38.4229C26.8293 38.2129 27.4241 38.4432 27.7915 38.9674C27.893 39.1121 28.1003 39.2489 28.2619 39.2505C29.7002 39.2723 31.14 39.2676 32.5783 39.2536C32.7256 39.2521 32.92 39.1852 33.0101 39.0701C33.8665 37.9827 34.9946 38.1741 35.495 39.5072C35.5136 39.5523 35.5336 39.5958 35.5751 39.6923Z" fill="#7456F1"/>
</g>
<mask id="mask29_167_56" style="mask-type:luminance" maskUnits="userSpaceOnUse" x="1" y="-11" width="86" height="92">
<path d="M87 -10.5781H1V80.4219H87V-10.5781Z" fill="white"/>
</mask>
<g mask="url(#mask29_167_56)">
<path d="M37.5312 60.8844C38.146 59.9776 38.6522 59.1422 39.2512 58.3971C39.4743 58.1187 39.9075 57.9522 40.2635 57.904C41.3287 57.7624 41.9878 57.1371 42.3939 56.0933C42.5354 55.7309 42.8185 55.4322 42.95 55.0667C43.1802 54.4211 43.602 54.152 44.2011 54.0167C45.0775 53.8191 45.9382 53.5329 46.8047 53.2856C46.8161 53.2824 46.8318 53.298 46.879 53.3198C46.4572 53.9513 46.0469 54.5844 45.6122 55.1958C45.5508 55.2813 45.3477 55.3171 45.2376 55.2813C44.2954 54.9764 43.6692 55.4929 43.6821 56.5616C43.6835 56.7264 43.6263 56.9224 43.5334 57.0531C42.5769 58.4142 41.6018 59.7598 40.6453 61.1209C40.4708 61.3698 40.325 61.4911 40.0033 61.4071C39.2198 61.2049 38.4206 61.068 37.5312 60.8844Z" fill="#7456F1"/>
</g>
<mask id="mask30_167_56" style="mask-type:luminance" maskUnits="userSpaceOnUse" x="1" y="-11" width="86" height="92">
<path d="M87 -10.5781H1V80.4219H87V-10.5781Z" fill="white"/>
</mask>
<g mask="url(#mask30_167_56)">
<path d="M38.9851 43.9178C38.1788 44.008 37.4067 44.0936 36.636 44.1807C35.2263 44.3393 33.818 44.498 32.4082 44.6536C32.2267 44.6738 32.0394 44.652 31.8592 44.6862C31.273 44.7982 30.6782 44.7049 30.1492 45.2478C29.5044 45.9073 28.4807 45.6367 28.0546 44.848C27.6057 44.0142 27.8902 42.9891 28.6894 42.5644C29.473 42.1491 30.3294 42.5722 30.6582 43.5351C30.694 43.6409 30.7412 43.742 30.8055 43.8991C31.4603 43.8493 32.128 43.812 32.7943 43.7467C33.9624 43.63 35.1291 43.4962 36.2958 43.3702C36.9163 43.3018 37.5382 43.238 38.1587 43.1633C38.835 43.0793 38.835 43.0762 38.9851 43.9178Z" fill="#7456F1"/>
</g>
<mask id="mask31_167_56" style="mask-type:luminance" maskUnits="userSpaceOnUse" x="1" y="-11" width="86" height="92">
<path d="M87 -10.5781H1V80.4219H87V-10.5781Z" fill="white"/>
</mask>
<g mask="url(#mask31_167_56)">
<path d="M71.6492 38.9911C71.479 38.3922 71.3132 37.8602 71.1859 37.3158C71.1545 37.182 71.2188 36.9907 71.2931 36.8631C71.6592 36.2347 72.0452 35.6171 72.4527 34.9482C73.911 35.4818 75.3637 36.0138 76.8177 36.5442C76.8192 36.622 76.822 36.6982 76.8234 36.776C75.1478 37.6005 73.3849 38.1947 71.6492 38.9911Z" fill="#7456F1"/>
</g>
<mask id="mask32_167_56" style="mask-type:luminance" maskUnits="userSpaceOnUse" x="1" y="-11" width="86" height="92">
<path d="M87 -10.5781H1V80.4219H87V-10.5781Z" fill="white"/>
</mask>
<g mask="url(#mask32_167_56)">
<path d="M34.6855 60.1098C35.4147 59.4409 36.0638 58.8638 36.6915 58.2587C36.8559 58.1 36.9531 57.8558 37.0732 57.6458C37.1605 57.4918 37.2234 57.3176 37.3192 57.1714C37.5837 56.7654 37.8796 56.3812 38.127 55.9643C38.3257 55.6314 38.5359 55.3669 38.9219 55.2954C39.0592 55.2705 39.2508 55.1632 39.2922 55.0418C39.4538 54.5721 39.7912 54.5658 40.1615 54.5409C40.7677 54.5021 41.3711 54.4196 42.0445 54.3496C41.6942 54.9952 41.384 55.5785 41.0594 56.1509C41.0022 56.2521 40.885 56.3298 40.7806 56.3812C40.5733 56.4823 40.3603 56.588 40.1386 56.6347C39.0477 56.8665 38.3143 57.5961 37.7238 58.5729C37.3721 59.1547 36.9503 59.6852 36.5785 60.2529C36.427 60.4832 36.2769 60.5874 36.0109 60.4987C35.6092 60.3603 35.2003 60.2576 34.6855 60.1098Z" fill="#7456F1"/>
</g>
<mask id="mask33_167_56" style="mask-type:luminance" maskUnits="userSpaceOnUse" x="1" y="-11" width="86" height="92">
<path d="M87 -10.5781H1V80.4219H87V-10.5781Z" fill="white"/>
</mask>
<g mask="url(#mask33_167_56)">
<path d="M41.4141 53.0771C42.0031 52.6463 42.5865 52.2076 43.1812 51.7876C44.1535 51.0985 45.13 50.414 46.1151 49.7451C46.2338 49.6643 46.4225 49.6378 46.5626 49.6689C47.2603 49.826 47.9509 50.0111 48.7401 50.2118C48.1068 50.9211 47.7779 51.8063 46.7785 52.0116C45.5546 52.262 44.3665 52.7085 43.1498 53.0118C42.5993 53.1487 42.0188 53.1456 41.4527 53.2047C41.4384 53.1627 41.4269 53.1191 41.4141 53.0771Z" fill="#7456F1"/>
</g>
<mask id="mask34_167_56" style="mask-type:luminance" maskUnits="userSpaceOnUse" x="1" y="-11" width="86" height="92">
<path d="M87 -10.5781H1V80.4219H87V-10.5781Z" fill="white"/>
</mask>
<g mask="url(#mask34_167_56)">
<path d="M55.0493 46.2871C54.7934 46.9311 54.6046 47.4522 54.3773 47.9547C54.3144 48.0931 54.1528 48.2176 54.0127 48.272C52.8303 48.7309 51.6422 49.1727 50.3926 49.5242C51.0588 48.7076 51.7122 47.88 52.4 47.0851C52.5272 46.9389 52.7817 46.9093 52.9833 46.8533C53.6367 46.6651 54.2958 46.4909 55.0493 46.2871Z" fill="#7456F1"/>
</g>
<mask id="mask35_167_56" style="mask-type:luminance" maskUnits="userSpaceOnUse" x="1" y="-11" width="86" height="92">
<path d="M87 -10.5781H1V80.4219H87V-10.5781Z" fill="white"/>
</mask>
<g mask="url(#mask35_167_56)">
<path d="M25.4453 58.6039C26.2932 57.9646 27.1381 57.3191 27.9931 56.6922C28.1075 56.6082 28.2905 56.5522 28.4192 56.5864C29.2299 56.7979 30.0348 57.039 30.9241 57.2926C30.2965 57.7079 29.7417 58.0859 29.1727 58.4406C29.0669 58.5059 28.8839 58.5215 28.7738 58.4686C27.8502 58.0175 26.9523 58.3862 26.0487 58.5464C25.8571 58.5806 25.6684 58.6319 25.4782 58.6755C25.4668 58.6506 25.4568 58.6273 25.4453 58.6039Z" fill="#7456F1"/>
</g>
<mask id="mask36_167_56" style="mask-type:luminance" maskUnits="userSpaceOnUse" x="1" y="-11" width="86" height="92">
<path d="M87 -10.5781H1V80.4219H87V-10.5781Z" fill="white"/>
</mask>
<g mask="url(#mask36_167_56)">
<path d="M30.7168 58.9423C32.1694 58.1303 33.735 57.7601 35.4893 57.827C34.8216 58.4446 34.1811 59.0466 33.5263 59.6283C33.4562 59.6906 33.2918 59.6579 33.1817 59.6283C32.3596 59.4059 31.5375 59.1726 30.7168 58.9423Z" fill="#7456F1"/>
</g>
<mask id="mask37_167_56" style="mask-type:luminance" maskUnits="userSpaceOnUse" x="1" y="-11" width="86" height="92">
<path d="M87 -10.5781H1V80.4219H87V-10.5781Z" fill="white"/>
</mask>
<g mask="url(#mask37_167_56)">
<path d="M17.2871 17.5086C17.7218 17.2955 18.175 16.9751 18.2422 16.3311C18.6182 16.8071 18.9599 17.2426 19.2673 17.6331C18.9814 17.9473 18.6239 18.3393 18.3108 18.6846C18.0149 18.3471 17.6603 17.9379 17.2871 17.5086Z" fill="#7456F1"/>
</g>
<mask id="mask38_167_56" style="mask-type:luminance" maskUnits="userSpaceOnUse" x="1" y="-11" width="86" height="92">
<path d="M87 -10.5781H1V80.4219H87V-10.5781Z" fill="white"/>
</mask>
<g mask="url(#mask38_167_56)">
<path d="M22.2713 36.21C22.5701 36.5724 22.8875 36.9566 23.1878 37.3206C22.9018 37.6146 22.5815 37.9444 22.4028 38.1295C22.154 37.8106 21.8681 37.4451 21.5836 37.0795C21.5049 37.1697 21.4263 37.26 21.3477 37.3517C21.6593 36.9675 21.971 36.5817 22.2713 36.21Z" fill="#7456F1"/>
</g>
<mask id="mask39_167_56" style="mask-type:luminance" maskUnits="userSpaceOnUse" x="1" y="-11" width="86" height="92">
<path d="M87 -10.5781H1V80.4219H87V-10.5781Z" fill="white"/>
</mask>
<g mask="url(#mask39_167_56)">
<path d="M56.068 30.629C55.7791 30.9526 55.4903 31.2746 55.2015 31.5981C55.3273 31.6261 55.4532 31.6541 55.5776 31.6821C55.3159 31.3088 55.0557 30.9355 54.794 30.5621C54.7025 30.6695 54.611 30.7753 54.5195 30.8826C54.8241 30.5139 55.1286 30.1452 55.4289 29.7812C55.6934 30.125 55.9879 30.5077 56.281 30.8919C56.2095 30.8032 56.138 30.7161 56.068 30.629Z" fill="#7456F1"/>
</g>
<mask id="mask40_167_56" style="mask-type:luminance" maskUnits="userSpaceOnUse" x="1" y="-11" width="86" height="92">
<path d="M87 -10.5781H1V80.4219H87V-10.5781Z" fill="white"/>
</mask>
<g mask="url(#mask40_167_56)">
<path d="M16.9857 25.9007C16.6912 26.2398 16.3981 26.5774 16.1035 26.9165C16.2179 26.9103 16.3337 26.9025 16.4481 26.8963C16.1393 26.5727 15.8305 26.2507 15.5273 25.9334C15.6889 25.7514 15.9949 25.403 16.2994 25.0576C16.5468 25.3672 16.8442 25.7405 17.1401 26.1123C17.0886 26.0423 17.0372 25.9723 16.9857 25.9007Z" fill="#7456F1"/>
</g>
<mask id="mask41_167_56" style="mask-type:luminance" maskUnits="userSpaceOnUse" x="1" y="-11" width="86" height="92">
<path d="M87 -10.5781H1V80.4219H87V-10.5781Z" fill="white"/>
</mask>
<g mask="url(#mask41_167_56)">
<path d="M23.877 22.549C24.1529 22.2161 24.3659 21.9594 24.579 21.7012C25.4311 22.7589 25.4583 22.3638 24.6104 23.2801C24.3702 23.0405 24.1315 22.801 23.877 22.549Z" fill="#7456F1"/>
</g>
<mask id="mask42_167_56" style="mask-type:luminance" maskUnits="userSpaceOnUse" x="1" y="-11" width="86" height="92">
<path d="M87 -10.5781H1V80.4219H87V-10.5781Z" fill="white"/>
</mask>
<g mask="url(#mask42_167_56)">
<path d="M48.5259 17.7163C48.2829 17.9979 48.077 18.2359 47.8768 18.4692C47.8311 18.4537 47.7925 18.4537 47.7768 18.4319C47.5794 18.1706 47.2191 17.8921 47.2349 17.6432C47.252 17.3772 47.6238 17.1392 47.8554 16.8701C48.0727 17.1455 48.2872 17.4161 48.5259 17.7163Z" fill="#7456F1"/>
</g>
<mask id="mask43_167_56" style="mask-type:luminance" maskUnits="userSpaceOnUse" x="1" y="-11" width="86" height="92">
<path d="M87 -10.5781H1V80.4219H87V-10.5781Z" fill="white"/>
</mask>
<g mask="url(#mask43_167_56)">
<path d="M33.3815 46.4443C33.5988 46.7166 33.8147 46.9888 34.032 47.2626C33.7804 47.513 33.5502 47.7432 33.3214 47.9719C32.6566 47.1957 32.6566 47.1957 33.3815 46.4443Z" fill="#7456F1"/>
</g>
<mask id="mask44_167_56" style="mask-type:luminance" maskUnits="userSpaceOnUse" x="1" y="-11" width="86" height="92">
<path d="M87 -10.5781H1V80.4219H87V-10.5781Z" fill="white"/>
</mask>
<g mask="url(#mask44_167_56)">
<path d="M39.7073 14.8525C39.9147 15.131 40.1034 15.383 40.3093 15.6583C40.1048 15.901 39.9147 16.125 39.7259 16.349C38.9539 15.733 38.9539 15.733 39.7073 14.8525Z" fill="#7456F1"/>
</g>
<mask id="mask45_167_56" style="mask-type:luminance" maskUnits="userSpaceOnUse" x="1" y="-11" width="86" height="92">
<path d="M87 -10.5781H1V80.4219H87V-10.5781Z" fill="white"/>
</mask>
<g mask="url(#mask45_167_56)">
<path d="M29.9303 14.6405C29.7015 14.9127 29.5185 15.1305 29.3384 15.3436C28.6063 14.7618 28.6063 14.7618 29.3055 13.8721C29.5142 14.1287 29.7173 14.3792 29.9303 14.6405Z" fill="#7456F1"/>
</g>
<mask id="mask46_167_56" style="mask-type:luminance" maskUnits="userSpaceOnUse" x="1" y="-11" width="86" height="92">
<path d="M87 -10.5781H1V80.4219H87V-10.5781Z" fill="white"/>
</mask>
<g mask="url(#mask46_167_56)">
<path d="M36.4588 14.8615C36.2572 15.0917 36.0914 15.2815 35.9241 15.4712C35.9041 15.4946 35.8741 15.507 35.8483 15.5257C35.1306 14.9377 35.1277 14.835 35.8455 14.1055C36.0413 14.3466 36.2372 14.5892 36.4588 14.8615Z" fill="#7456F1"/>
</g>
<mask id="mask47_167_56" style="mask-type:luminance" maskUnits="userSpaceOnUse" x="1" y="-11" width="86" height="92">
<path d="M87 -10.5781H1V80.4219H87V-10.5781Z" fill="white"/>
</mask>
<g mask="url(#mask47_167_56)">
<path d="M42.2863 20.9751C41.6229 20.4275 41.6229 20.2782 42.2891 19.5938C42.9969 20.2689 42.9969 20.3404 42.2863 20.9751Z" fill="#7456F1"/>
</g>
<mask id="mask48_167_56" style="mask-type:luminance" maskUnits="userSpaceOnUse" x="1" y="-11" width="86" height="92">
<path d="M87 -10.5781H1V80.4219H87V-10.5781Z" fill="white"/>
</mask>
<g mask="url(#mask48_167_56)">
<path d="M22.7922 20.0661C22.0701 19.3879 22.103 19.5465 22.815 18.7734C23.4985 19.4159 23.6343 19.4517 22.7922 20.0661Z" fill="#7456F1"/>
</g>
<mask id="mask49_167_56" style="mask-type:luminance" maskUnits="userSpaceOnUse" x="1" y="-11" width="86" height="92">
<path d="M87 -10.5781H1V80.4219H87V-10.5781Z" fill="white"/>
</mask>
<g mask="url(#mask49_167_56)">
<path d="M65.0512 33.961C66.2993 33.9547 67.3531 35.0794 67.3559 36.4187C67.3588 37.7363 66.3451 38.8392 65.1312 38.8392C63.9102 38.8407 62.8636 37.7176 62.8536 36.3985C62.8422 35.0607 63.8273 33.9672 65.0512 33.961ZM66.2236 36.4265C66.2264 35.7312 65.7389 35.1945 65.0998 35.1899C64.4993 35.1867 64.0046 35.7343 64.0074 36.4016C64.0103 37.0627 64.4793 37.5854 65.0669 37.5839C65.6731 37.5823 66.2207 37.0332 66.2236 36.4265Z" fill="#7456F1"/>
</g>
</g>
<defs>
<clipPath id="clip0_167_56">
<rect width="86" height="91" fill="white"/>
</clipPath>
</defs>
</svg>
