<?xml version="1.0" encoding="utf-8"?>
<!-- Generator: Adobe Illustrator 25.4.1, SVG Export Plug-In . SVG Version: 6.00 Build 0)  -->
<svg version="1.1" id="Layer_1" xmlns="http://www.w3.org/2000/svg" xmlns:xlink="http://www.w3.org/1999/xlink" x="0px" y="0px"
	 viewBox="0 0 601.5 585" style="enable-background:new 0 0 601.5 585;" xml:space="preserve">
<style type="text/css">
	.st0{fill:#FFFFFF;}
	.st1{clip-path:url(#SVGID_00000054977652786656719500000002082149799980773014_);}
	.st2{clip-path:url(#SVGID_00000054977652786656719500000002082149799980773014_);fill:#FFFFFF;}
	.st3{clip-path:url(#SVGID_00000054977652786656719500000002082149799980773014_);fill:#0F1518;}
</style>
<g>
	<rect x="8.4" y="4.9" class="st0" width="589.7" height="579.4"/>
	<g>
		<defs>
			<rect id="SVGID_1_" x="4.7" y="-5.1" width="601.5" height="585"/>
		</defs>
		<clipPath id="SVGID_00000004512893552834043500000003979385999522474663_">
			<use xlink:href="#SVGID_1_"  style="overflow:visible;"/>
		</clipPath>
		<path style="clip-path:url(#SVGID_00000004512893552834043500000003979385999522474663_);" d="M172.5,154.8
			c5.1-2,8.2-5.4,9.8-10.5c2.1,4.7,4.4,8.9,9.9,10.4c-5.2,1.8-8.1,5.3-9.6,10.4C180.5,160.2,177.6,156.5,172.5,154.8z"/>
		<path style="clip-path:url(#SVGID_00000004512893552834043500000003979385999522474663_);" d="M126.1,201.4c3-1.4,6.2-3.4,6.7-7.6
			c2.6,3.1,5,5.9,7.2,8.4c-2,2-4.5,4.5-6.7,6.8C131.1,206.7,128.7,204.1,126.1,201.4z"/>
		<path style="clip-path:url(#SVGID_00000004512893552834043500000003979385999522474663_);" d="M270.2,161.5
			c-2.1-2.1-4.3-4.2-6.4-6.3c-0.4,0.5-0.8,1-1.1,1.5c2.1-2.3,4.3-4.7,6.3-6.8c1.9,2.1,4,4.4,6,6.6c-1.9,2-4,4.2-6.1,6.4
			C269.2,162.3,269.7,161.9,270.2,161.5z"/>
		<path style="clip-path:url(#SVGID_00000004512893552834043500000003979385999522474663_);" d="M172.2,232.5
			c1.9-2.1,3.4-3.8,4.9-5.4c6,6.8,6.2,4.3,0.2,10.1C175.6,235.6,173.9,234.1,172.2,232.5z"/>
		<path style="clip-path:url(#SVGID_00000004512893552834043500000003979385999522474663_);" d="M344.5,202.7
			c-1.7,1.8-3.1,3.3-4.5,4.8c-0.3-0.1-0.6-0.1-0.7-0.2c-1.4-1.7-3.9-3.5-3.8-5.1c0.1-1.7,2.7-3.2,4.3-5
			C341.4,199,342.9,200.8,344.5,202.7z"/>
		<path style="clip-path:url(#SVGID_00000004512893552834043500000003979385999522474663_);" d="M282.9,184.3
			c1.5,1.8,2.8,3.4,4.2,5.2c-1.4,1.6-2.8,3-4.1,4.4C277.6,189.9,277.6,189.9,282.9,184.3z"/>
		<path style="clip-path:url(#SVGID_00000004512893552834043500000003979385999522474663_);" d="M214.5,182.9
			c-1.6,1.7-2.9,3.1-4.1,4.5c-5.1-3.7-5.1-3.7-0.2-9.5C211.6,179.6,213,181.2,214.5,182.9z"/>
		<path style="clip-path:url(#SVGID_00000004512893552834043500000003979385999522474663_);" d="M260.2,184.3
			c-1.4,1.5-2.6,2.7-3.7,3.9c-0.1,0.1-0.4,0.2-0.5,0.3c-5-3.8-5-4.4,0-9.1C257.2,181,258.6,182.6,260.2,184.3z"/>
		<path style="clip-path:url(#SVGID_00000004512893552834043500000003979385999522474663_);" d="M300.9,223.6
			c-4.6-3.5-4.6-4.5,0-8.9C305.9,219.1,305.9,219.6,300.9,223.6z"/>
		<path style="clip-path:url(#SVGID_00000004512893552834043500000003979385999522474663_);" d="M164.6,217.8
			c-5.1-4.4-4.8-3.3,0.2-8.3C169.5,213.6,170.4,213.8,164.6,217.8z"/>
		<path style="clip-path:url(#SVGID_00000004512893552834043500000003979385999522474663_);fill:#FFFFFF;" d="M-444.6,437.8
			c-0.7-5.8-1.8-10.5-1.8-15.2c-0.1-19-6.4-36.2-14.9-52.8c-1.8-3.5-2.7-7.1-2.6-11c0.2-7-0.1-13.9,0.1-20.9c0-2.1-0.7-3-2.6-3.7
			c-10.2-3.6-20.3-7.3-30.4-10.9c-0.7-0.3-1.4-0.6-2.4-1c13.5-13.4,26.5-27.1,45.2-32.9c22.8-7,42.8-2.1,59.4,15.2
			c2.3,2.4,4.5,4.9,6.9,7.4c-2.9,4.3-5.5,8.4-8.4,12.4c-1.1,1.6-1.7,3-0.9,5c0.9,2.4,1.1,5,2.2,7.3c1.7,3.8,0.8,6.3-2.2,9.1
			c-10.5,9.9-16.3,22.5-20.5,36c-4.9,15.4-10.3,30.5-19.2,44.2C-439.1,429.7-441.6,433.3-444.6,437.8z M-434,307.1
			c-8.6,0-15.4,7.1-15.4,15.7c0.1,8.5,7.4,15.7,15.9,15.7c8.5,0,15.6-7.1,15.6-15.6C-417.9,314.2-425.2,307-434,307.1z"/>
		<path style="clip-path:url(#SVGID_00000004512893552834043500000003979385999522474663_);fill:#FFFFFF;" d="M-534.9,311.9
			c0.8-1.4,1.8-2.9,2.9-4.7c-2.9-3.2-6-6.4-8.9-9.8c-7.9-9.1-15.7-18.2-23.4-27.3c-1.7-2-3.1-3.6-6.3-2.7c-3.6,1-7.9-1.9-9.4-5.2
			c-1.8-3.9-1.1-8.9,2.1-11.5c1.6-1.3,1.6-2.5,1.3-4.4c-3.2-17.7-6.3-35.3-9.4-53c-0.2-1.4-1.1-2.7-2-3.8
			c-3.7-4.7-3.3-10.9,1.3-13.8c3.2-2,6.6-2,9.9-0.2c3.7,2,4.4,5.4,4,9c-0.4,3.6-2.4,6.1-6.1,7c-0.7,0.2-1.4,0.5-2.6,0.8
			c0.9,5.1,1.7,10.1,2.7,15.1c2.5,12.5,5.1,25,7.8,37.5c0.2,1.1,1.5,2.5,2.6,2.9c5.5,1.9,8.4,7.4,6.7,13.1c-0.3,1-0.6,2.5,0,3.2
			c7.9,9.6,15.9,19,24.2,28.7c0.2-0.7,0.4-1,0.5-1.3c0.2-9.5,0.3-19.1,0.5-28.6c0-2.1-0.3-3.5-2.8-4.2c-3.6-1-6.4-6.2-6-10.1
			c0.5-4.9,3.9-8.7,8.5-9.6c4.2-0.8,8.5,1.3,10.6,5c2.7,4.9,1.3,10.5-3.2,13.9c-0.8,0.6-1.6,2-1.6,3c-0.3,11.8-0.5,23.6-0.7,35.3
			c-0.1,3,4.3,8.4,6.9,8.1c8.7-0.8,16,8.8,9.6,19c4.8,2.3,9.5,4.7,14.4,6.7c8.7,3.5,17.5,6.6,26.3,9.8c2.1,0.7,2.8,1.8,2.7,3.9
			c-0.2,4.3-0.1,8.7-0.1,13c-9-1.6-15.2-7.5-22.1-12.3c-8.1-5.6-16.2-11.2-24.3-16.7c-0.9-0.6-2.4-0.8-3.5-0.7
			c-5.8,0.4-9.8-1.7-12.6-6.8c-0.6-1-1.6-1.9-2.6-2.5c-8.4-5.1-16.9-10-25.3-15.1c-11.8-7.1-24.8-10.8-37.9-14.2
			c-2-0.5-4.1-1.1-6.3-1.6c0.4-1.7,0.7-3.5,1.2-5.8c7,1.9,14.1,3.7,21.9,5.8c-2.5-3.6-4.6-6.6-6.7-9.5c-5.7-8-11.3-16.1-17.1-24.1
			c-0.6-0.9-1.6-1.8-2.6-2c-3.3-0.4-5.1-2.3-6.5-5c-0.5-1-1.1-2.2-2-2.6c-8.3-4.3-16.7-8.5-25.1-12.8c-1.5-0.8-2.9-2.2-3.9-3.6
			c-3.1-4.4-5.9-8.9-8.9-13.4c-4.1,1.9-7.7,1.6-11-1.1c-4.9-4-5.2-11.5-0.2-15.4c2.3-1.8,2.8-3.7,2.6-6.2
			c-1.1-9.9-2.1-19.7-3.2-29.5c-7-3.2-9.5-7.3-8.3-13.4c0.9-4.7,5.2-8.1,10.5-8.3c4.9-0.2,9.2,3.1,10.6,8.1
			c1.4,5.2-0.9,9.6-6.9,12.9c0.5,5.2,0.9,10.5,1.5,15.8c0.5,5.1,1.1,10.2,1.9,15.2c0.2,1.2,1.2,2.7,2.2,3.2c5.1,2.8,7,7,5.8,12.8
			c-0.3,1.2-0.1,2.8,0.5,3.9c2.3,4,4.8,7.8,7.3,11.7c0.6,0.9,1.3,1.8,2.2,2.2c8.1,4.2,16.3,8.4,24.5,12.6c0.4,0.2,0.9,0.3,2.1,0.7
			c-0.4-1.8-0.5-3.1-0.9-4.3c-1.9-5.5-3.8-10.9-5.7-16.3c-0.7-1.9-1.3-3.6-3.4-4.6c-2.4-1.1-3.2-4.6-2.2-7c1-2.4,3.7-3.8,6.4-3.1
			c2.8,0.7,4.9,2.6,4.2,5.5c-1.3,5.4,1.6,9.7,2.8,14.4c0.6,2.3,1.8,4.4,2.3,6.6c0.8,3.1,1.9,5.2,5.5,6.3c4.4,1.4,5.7,6.1,3.8,10.6
			c-0.4,1.1-0.5,2.8,0.1,3.7c8.9,12.6,18,25.2,27.1,37.7c0.6,0.8,1.5,1.5,2.5,2C-559.8,297.7-547.5,304.8-534.9,311.9z"/>
		<path style="clip-path:url(#SVGID_00000004512893552834043500000003979385999522474663_);fill:#FFFFFF;" d="M-745.6,562.9
			c-4.8,6.9-9.8,13.7-14.5,20.6c-4,5.9-9.6,6-13.7,0c-4.8-7-9.6-14.1-15.3-21.1c0,1,0,2.1,0,3.1c0,11.9-0.1,23.8,0.1,35.7
			c0,2.8-1.1,3.6-3.6,3.6c-3.1,0-6.2-0.1-9.3,0.1c-2.9,0.2-4-1.1-4-4c0.1-10.2,0.1-20.4,0.1-30.5c0-12.5,0.1-25.1-0.1-37.6
			c0-2.7,1-3.7,3.5-3.7c3.5,0,7.1-0.4,10.6,0c1.4,0.1,3,1.5,3.8,2.8c6.8,10.6,13.5,21.2,20.3,31.9c0.2,0.4,0.5,0.7,1,1.3
			c4.9-7.7,9.7-15.2,14.6-22.7c2.4-3.7,4.6-7.4,7.2-11c0.8-1.1,2.5-2,3.8-2.2c3.5-0.3,7.1-0.1,10.6-0.2c1.9-0.1,2.6,0.6,2.6,2.6
			c-0.1,23.4-0.1,46.7,0,70.1c0,2.2-0.9,3.2-3,3.2c-3.2,0-6.4-0.1-9.6,0.1c-3,0.2-4.2-1.1-4.2-4.1c0.1-11.9,0-23.8,0-35.7
			c0-0.6-0.1-1.3-0.1-1.9C-745.1,563.1-745.4,563-745.6,562.9z"/>
		<path style="clip-path:url(#SVGID_00000004512893552834043500000003979385999522474663_);fill:#FFFFFF;" d="M-580.8,563
			c10.2,0,20.1,0,30.3,0c0,3.2,0,6,0,8.9c0,9.6-0.1,19.3,0.1,28.9c0,2.8-1,4-3.7,3.9c-1.7,0-3.5,0.2-5.1-0.1
			c-1.5-0.4-2.9-1.4-4.1-2.6c-11.9,4.6-23.8,4.9-35.3-1.6c-8.1-4.5-14-11.3-17.3-20c-6.7-17.7,0.5-38.1,16.7-47.3
			c15-8.6,36.1-6,45.6,5.8c-3.7,4-7.4,7.9-10.4,11.1c-5.5-1.9-10-4.3-14.7-4.9c-10.4-1.3-19.9,7.1-22,17.3
			c-3,14.7,10.8,31.7,31.3,24.8c0.7-0.2,1.4-1.3,1.5-2c0.2-2.3,0.1-4.7,0.1-7.3c-3.4,0-6.4,0-9.5,0c-2.3,0-3.6-0.7-3.4-3.4
			C-580.7,570.8-580.8,567-580.8,563z"/>
		<path style="clip-path:url(#SVGID_00000004512893552834043500000003979385999522474663_);fill:#FFFFFF;" d="M-393.9,545.7
			c0,5,0,9.4,0,14.1c5.9,0,11.6,0,17.2,0c4.3,0,8.6,0.1,12.9-0.1c2.3-0.1,3.1,0.8,3,3c-0.1,3.2-0.2,6.4,0,9.6
			c0.1,2.7-1.1,3.3-3.4,3.2c-8.9,0-17.8,0.1-26.7,0.1c-0.9,0-1.9,0-2.9,0c0,4.4,0,8.5,0,12.9c1.4,0,2.4,0,3.5,0c9.9,0,19.7,0,29.6,0
			c4.5,0,4.5,0,4.5,4.3c0,2.9-0.1,5.8,0,8.7c0.1,2.2-1,3.1-3.1,3.1c-16.1,0-32.1,0-48.2,0c-2.4,0-3.5-1.1-3.5-3.6
			c0-23.1,0-46.3,0-69.4c0-1.8,0.7-2.6,2.3-2.7c1.4-0.1,2.8-0.2,4.2-0.2c14.7,0,29.4,0,44,0c4,0,4.2,0.2,4.2,4.1c0,3-0.1,6,0.1,9
			c0.2,2.8-0.8,3.8-3.6,3.7c-10.1-0.1-20.1-0.1-30.2-0.1C-391.4,545.7-392.5,545.7-393.9,545.7z"/>
		<path style="clip-path:url(#SVGID_00000004512893552834043500000003979385999522474663_);fill:#FFFFFF;" d="M-658,269.6
			c-3.8-4.7-7.1-8.9-10.4-13c-4.2-5.3-8.5-10.5-12.6-15.8c-1.1-1.4-1.9-2-4-1.3c-4,1.4-7.7,0.3-10.5-2.8c-2.8-3.1-3-6.8-1.8-10.8
			c0.4-1.2,0.3-3.1-0.4-3.9c-7.4-8.6-15-17.1-22.4-25.6c-1.2-1.4-2.3-1.7-4.1-1.1c-4.4,1.4-9.7-1-11.8-4.9c-2.2-4.1-1.4-9.5,2-12.7
			c3.1-2.9,9-3.4,12.6-1.2c4,2.4,5.8,7.6,4.6,12c-0.3,1.2-0.2,3.1,0.6,3.9c7.6,8.7,15.4,17.2,23.1,25.8c1.1,1.3,2.2,1.8,4.1,1.6
			c7.1-0.9,12.6,5.7,11.3,12.8c-0.2,1.2,0,3,0.7,3.9c8.7,11.2,17.6,22.3,26.4,33.4c0.6,0.7,1.4,1.3,2.3,1.5
			c7.3,1.6,14.5,3.2,21.8,4.7c0.7,0.2,1.6-0.3,2.4-0.4c-0.2-1-0.2-2.1-0.7-2.9c-5.2-7.7-11.2-14.7-19.3-19.7c-3.3-2-6.1-4.7-9.2-7
			c-1.5-1.1-3.2-2-4.9-2.7c-2.3-1-4.1-4-3.4-6.2c0.8-2.5,2.7-3.8,5.3-3.8c2.5,0,4.5,2.4,4.9,5.1c0.1,1,0.7,2.2,1.4,2.8
			c5.1,4,10.1,8.2,15.6,11.8c6.3,4.2,9.7,10.8,14.3,16.3c1.5,1.8,2.7,3.4,5.4,3.9c3.8,0.8,6.1,4.6,5.9,8.5c-0.2,3.6-3,7.1-6.5,7.9
			c-4.1,0.9-8.8-1-10.2-4.7c-1-2.6-2.4-3.4-4.9-3.9c-18.3-3.5-36.6-7.2-54.9-10.8c-0.8-0.1-2,0.4-2.5,1c-5.2,6.1-14.2,4.8-17-2.7
			c-0.8-2.1-1.9-3-3.8-4c-9.1-4.9-18.2-9.9-27.2-15c-2.8-1.6-5-3-8.5-0.4c-3.9,2.9-9.7,1.5-13.1-2.2c-3.1-3.4-3.7-9.3-1.2-13.5
			c2.3-3.9,7.6-6,12.3-4.9c4.7,1.1,8.2,5.2,8.1,10.1c0,2.3,0.8,3.5,2.7,4.5c10,5.4,19.9,10.8,29.8,16.2c1.3,0.7,2.2,1,3.6-0.3
			c5.4-4.9,12.5-3.1,15.5,3.8c0.3,0.6,0.9,1.4,1.4,1.5C-676.6,266.2-667.7,267.8-658,269.6z"/>
		<path style="clip-path:url(#SVGID_00000004512893552834043500000003979385999522474663_);fill:#FFFFFF;" d="M-638.9,604.8
			c-9.4-0.1-7.3,1.9-11.4-7.6c-3.1-7.1-3-7.1-10.9-7.1c-6.3,0-12.7,0.2-19-0.1c-3.5-0.2-5.3,0.9-6.3,4.2c-0.8,2.7-2.4,5.2-3.4,7.9
			c-0.7,1.8-1.9,2.6-3.9,2.6c-3.6-0.1-7.3,0.1-10.9,0c-3.7,0-4.3-1.1-2.8-4.6c6.8-15.3,13.6-30.6,20.4-45.9
			c3.3-7.4,6.6-14.8,9.8-22.2c0.9-2.2,2.1-3.2,4.5-3c2.5,0.1,5,0.2,7.4-0.2c3.1-0.5,4.6,1,5.7,3.7c8,18.9,16.2,37.8,24.3,56.7
			c1.6,3.8,3.3,7.6,4.9,11.5c1.4,3.3,0.8,4.1-2.9,4.1C-635.3,604.8-637.1,604.8-638.9,604.8z M-677.7,574.4c6,0,11.5,0,17.6,0
			c-2.9-6.7-5.7-12.9-8.8-19.9C-672.1,561.6-674.8,567.9-677.7,574.4z"/>
		<path style="clip-path:url(#SVGID_00000004512893552834043500000003979385999522474663_);fill:#FFFFFF;" d="M-512.2,582.3
			c0,5,0,9.6,0,14.3c0,8.7,0.9,8.1-8.1,8.2c-1.7,0-3.4-0.1-5.1,0c-3.1,0.2-4.1-1.2-4.1-4.3c0.1-18.8,0.1-37.7,0.1-56.5
			c0-3.7,0.1-7.5-0.1-11.2c-0.2-2.5,0.7-3.6,3.1-3.6c9.4,0.1,18.8,0,28.2,0.2c5.9,0.1,11.4,1.6,16.2,5.1
			c8.7,6.4,11.9,15.4,10.2,25.7c-1.7,10.2-7.9,17.4-17.9,20.1c-5.9,1.6-12.2,1.4-18.4,2C-509.2,582.4-510.5,582.3-512.2,582.3z
			 M-511.8,565.8c4.9,0,9.4,0.4,13.8-0.1c5.6-0.6,8.7-4.2,9-9.2c0.3-5-3.2-9.8-8.4-10.5c-4.7-0.6-9.5-0.1-14.5-0.1
			c0,6,0,11.9,0,17.8C-512,564.4-511.8,565.1-511.8,565.8z"/>
		<path style="clip-path:url(#SVGID_00000004512893552834043500000003979385999522474663_);fill:#FFFFFF;" d="M-520,351.3
			c-12.4,4.6-23.8,9.1-35.4,12.8c-4.7,1.5-10,1.1-15,1.5c-7.9,0.7-15.8,1.3-23.6,2.1c-0.8,0.1-1.7,0.8-2.1,1.4
			c-2.7,4.4-7.2,6.1-11.4,4.3c-4.4-1.9-6.8-6.7-5.4-11.4c0.9-3,3.2-4.7,6.2-5.4c3.7-0.8,7.2,0,9.5,3.1c1.4,1.9,2.6,2.4,4.9,2.2
			c10.8-1.1,21.8-1.3,32.5-2.9c7-1.1,13.6-4,20.4-6.1c0-0.3,0-0.6,0-0.9c-2.1-0.4-4.1-0.8-6.2-1.1c-13.2-1.9-26.4-3.8-39.6-5.6
			c-1.2-0.2-2.7,0.4-3.7,1.1c-2.9,2.2-5.8,2.5-9,0.8c-2.9-1.5-4-4.3-3.9-8.1c0-1.2-0.6-2.6-1.4-3.5c-3.7-3.7-7.4-7.4-11.4-10.9
			c-1.4-1.2-3.5-2.2-5.3-2.2c-12.2-0.4-24.4-0.5-36.6-0.7c-1.2,0-2.4,0.1-3.5-0.2c-2.9-0.7-4.9-0.2-7.2,2.3
			c-4.2,4.5-12.3,2.7-14.6-3.3c-1.1-2.8-2.6-3.9-5.2-4.6c-7-1.9-13.9-4.1-20.9-6c-1.4-0.4-3.2,0.1-4.6,0.8c-2.5,1.3-5,2-7.6,0.7
			c-2.5-1.2-3.9-3.2-3.8-6.2c0-0.8-0.3-2-0.9-2.4c-6.4-4.1-12.8-8-19.6-12.2c-0.7,0.8-1.4,1.7-2.2,2.5c-3.4,3.1-7.8,3.6-11.8,1.3
			c-3.9-2.3-5.6-6.7-4.4-11.4c1-4,4.7-6.9,8.9-7.1c4.9-0.3,8.7,2.2,10.3,6.5c0.5,1.2,1.2,2.5,2.2,3.2c6.3,4.2,12.7,8.3,19.2,12.2
			c1,0.6,2.6,0.8,3.8,0.5c3.4-0.8,6.3,0.4,8.1,3.4c0.6,1,1.6,2.1,2.6,2.4c8.4,2.5,16.7,4.9,25.2,7.1c0.9,0.2,2.2-0.3,3-1
			c5.3-4.3,12.3-2.8,15.1,3.4c0.7,1.6,1.5,2.2,3.3,2.2c14.2,0.1,28.5,0.5,42.7,0.6c3.1,0,5.3,1,7.4,3c3.8,3.8,7.6,7.6,11.3,11.4
			c1.1,1.1,1.9,1.7,3.8,1.2c3.9-1.1,7.6,1.2,9.4,4.9c0.5,1.1,2,2.3,3.1,2.5c10,1.5,20.1,2.4,30.1,4.1c10,1.7,20,4,29.9,6.1
			C-522.5,350.1-521.7,350.6-520,351.3z"/>
		<path style="clip-path:url(#SVGID_00000004512893552834043500000003979385999522474663_);fill:#FFFFFF;" d="M-474.1,374
			c-6-0.6-11.8-1.4-17.7-1.8c-3-0.2-5-1-6.5-4c-2.9-5.9-6.3-11.6-9.5-17.4c2.9-2.6,5.4-2.1,8.3,0.1c5.4,4,11.1,7.5,16.7,11.2
			c0.4,0.3,1,0.5,1.5,0.6c7.2,1.1,11.1,5.3,13.5,12.1c2.7,7.5,6.2,14.7,9.4,22.1c0.7,1.5,0.6,2.5-0.9,3.5c-1.6,1.1-2.8,2.6-4.3,3.9
			c-1.9,1.7-3.5,3.3-6.8,2.8c-4.8-0.8-9,4.3-7.2,8.8c2,5.1,0.2,9.6-0.4,14.3c-0.5,4-1.4,8-2.4,11.9c-0.4,1.4-1.3,3.1-2.5,3.9
			c-7.2,4.9-14.5,9.4-21.7,14.3c-1.4,1-2.8,2.4-3.6,3.9c-2.4,4.5-4.5,9.2-6.7,13.8c-0.5,1-1.1,2.5-2,2.7c-6.2,1.6-12.5,3-19.7,4.7
			c2-5.1,3.5-9.2,5.2-13.2c0.4-0.9,1.6-1.6,2.6-1.9c2.9-1,5.1-2.4,6-5.6c0.3-1,1.5-2.1,2.5-2.5c4.2-1.6,7.1-4.2,8.9-8.5
			c1.4-3.4,3.8-6.5,5.3-9.9c2.6-6.1,7.2-10.2,13.1-13c2.5-1.2,3.8-3,4.6-5.7c4.6-16.2,9.3-32.3,14-48.5
			C-474.3,376-474.3,375.3-474.1,374z"/>
		<path style="clip-path:url(#SVGID_00000004512893552834043500000003979385999522474663_);fill:#FFFFFF;" d="M-578.4,486.4
			c3.5-5,6.8-10.1,10.5-14.9c1.1-1.4,3.4-2.2,5.3-2.7c8.5-2.2,14.9-6.7,17.3-15.7c2.1-8.1,7.9-12.2,15.7-14.2
			c3.1-0.8,5.9-2.6,8.9-3.5c3.9-1.1,5.6-3.5,6.6-7.2c1.7-6.5,3.8-12.9,5.9-19.3c0.3-1,0.9-2.5,1.8-2.8c2.9-1,3.9-3.2,5-5.7
			c2.5-5.7,5.3-11.2,7.8-16.9c1-2.2,2.3-3,4.7-2.6c1.6,0.2,3.2,0,5.3,0c-1.2,4.4-2.3,8.5-3.5,12.5c-2.8,9.3-5.6,18.5-8.5,27.8
			c-0.4,1.3-1.4,2.7-2.5,3.3c-6.1,3.3-10.8,7.7-13.8,14.1c-2.2,4.6-5,8.9-7.8,13.2c-1.2,1.9-3,3.5-4.3,5c-2.4-0.8-4.3-1.7-6.2-1.9
			c-5-0.5-8.6,4-7.7,8.9c0.3,1.4,0.2,2.9-0.3,4.2c-1.8,5.1-3.8,10.2-5.6,15.3c-0.6,1.7-1.3,2.7-3.3,2.8c-10.2,0.4-20.4,0.9-30.7,1.4
			C-578.1,487.2-578.2,486.8-578.4,486.4z"/>
		<path style="clip-path:url(#SVGID_00000004512893552834043500000003979385999522474663_);fill:#FFFFFF;" d="M-778.5,453.7
			c47.1-4.7,92.8-13.4,137.6-27.1c-2.4,1.7-4.9,3.3-7.3,5c-7.7,5.2-15.3,10.6-23.1,15.6c-1.3,0.8-3.4,1-4.9,0.6
			c-5-1.1-9.9-2.7-14.8-3.9c-0.9-0.2-2.3,0.2-3.1,0.7c-7.8,5.2-15.7,10.3-23.3,15.8c-5.6,4.1-11.3,6.9-18.6,7.3
			C-752,468.8-765.9,464.7-778.5,453.7z"/>
		<path style="clip-path:url(#SVGID_00000004512893552834043500000003979385999522474663_);fill:#FFFFFF;" d="M-511.2,342.4
			c-3.6,1.5-6.6,1.7-9.9,0.4c-14.2-5.5-28.5-10.7-42.8-15.9c-1-0.4-2.5-0.1-3.5,0.4c-7,4-14.1,0.3-14.8-7.8c-0.1-1.1-0.9-2.3-1.7-3
			c-2.2-1.9-4.7-3.4-6.8-5.3c-4.3-3.8-9.8-3.5-14.8-4.5c-14-2.7-28.1-5.1-42.2-7.5c-1.5-0.3-3.5,0.2-4.9,1.1
			c-3.3,2.1-6.9,1.5-9.4-1.5c-0.9-1.1-2.4-1.8-3.7-2.5c-0.5-0.3-1.3-0.3-1.8-0.6c-9.1-4.5-18.8-3.2-28.3-3.3c-0.9,0-1.8,0.5-2.7,0.8
			c-2.4,0.9-5,0.8-6.2-1.5c-0.7-1.2-0.3-3.6,0.4-4.9c1.4-2.2,3.7-2,6-1.1c1.7,0.7,3.6,1.1,5.4,1.3c2.3,0.2,4.7,0.2,7.1,0
			c7.6-0.5,14.9,0.2,21.8,3.7c0.8,0.4,2.4,0.1,3.2-0.4c3-1.9,6.1-1.8,8.9,0.4c1.5,1.2,3.3,2.3,5.2,2.6c17.4,3.2,34.8,6.1,52.2,9.3
			c2.1,0.4,4.1,1.6,6,2.7c2,1.2,3.9,2.7,5.5,4.4c2.4,2.4,4.5,2.9,7.8,1.3c5.2-2.5,11.5,1.7,12,7.7c0.2,1.8,0.9,2.5,2.5,3.1
			c14.4,5.5,28.8,11.1,43.2,16.8C-515.6,339.6-513.6,341-511.2,342.4z"/>
		<path style="clip-path:url(#SVGID_00000004512893552834043500000003979385999522474663_);fill:#FFFFFF;" d="M-665.7,453.1
			c8.9-6.1,17.9-11.9,26.6-18.3c17.4-13,37.4-20.9,56.9-29.7c15.3-6.9,30.5-14.3,45.2-22.5c7.6-4.2,14.8-5.3,23-3
			c-1.4,0.5-2.7,1-4.1,1.4c-1.5,0.5-3,1.2-4.5,1.5c-3.4,0.8-5.8,2.8-8.1,5.4c-4.2,4.9-8.6,9.6-13,14.2c-0.7,0.7-2.2,1.3-3.2,1.1
			c-5.4-1.2-10.8-2.5-16.1-4.1c-1.9-0.5-3.4-0.3-5,0.7c-14.5,9.6-29.1,19.2-43.6,28.8c-2.5,1.7-4.8,3.1-8.1,2.6
			c-3.8-0.5-6.7,2-6.5,5.7c0.2,3.3-1.7,5.3-3.1,7.7c-3.5,6.3-8.9,7.9-15.7,7.8c-6.8,0-13.6,0.8-20.4,1.3
			C-665.6,453.7-665.6,453.4-665.7,453.1z"/>
		<path style="clip-path:url(#SVGID_00000004512893552834043500000003979385999522474663_);fill:#FFFFFF;" d="M-434.8,566.6
			c0,11.5-0.1,22.9,0.1,34.4c0,3-1.2,4-4,3.9c-3-0.1-6-0.1-9,0c-2.8,0.1-3.8-1.1-3.8-3.8c0.1-18.7,0.1-37.5,0.1-56.2
			c0-4.1,0.1-8.1-0.2-12.2c-0.2-2.8,1-3.6,3.4-3.6c3.3,0,6.6,0.1,10-0.1c2.8-0.2,3.4,1.1,3.4,3.6
			C-434.8,543.9-434.8,555.2-434.8,566.6C-434.8,566.6-434.8,566.6-434.8,566.6z"/>
		<path style="clip-path:url(#SVGID_00000004512893552834043500000003979385999522474663_);fill:#FFFFFF;" d="M-506.8,478.2
			c1.8-3.6,3.2-6.5,4.8-9.3c0.8-1.3,1.8-2.6,3.1-3.5c7.6-5,15.3-9.8,22.8-14.8c1.2-0.8,2.3-2.2,2.6-3.6c1.6-7.7,3-15.5,4.6-23.2
			c0.2-1,1.3-1.8,2-2.6c1.2-1.3,3.3-2.5,3.5-3.9c0.6-4.9,4.9-6.5,7.9-10.3c0.8,6.7,1.5,12.5,2.1,18.4c0.5,5,0.7,10,1.5,14.9
			c0.4,2.3-0.2,3.8-1.7,5.3c-13.5,13.8-29.2,24.1-47.5,30.5C-502.8,476.9-504.5,477.4-506.8,478.2z"/>
		<path style="clip-path:url(#SVGID_00000004512893552834043500000003979385999522474663_);fill:#FFFFFF;" d="M-597.6,484.9
			c6.5-8.4,13-16.8,19.5-25.1c0.5-0.6,1.6-0.9,2.5-1c4-0.6,6.7-2.5,7.6-6.7c0.2-0.8,1.1-1.9,1.8-2.1c2.9-0.9,4.4-2.9,5.9-5.4
			c5.1-8.2,10.6-16.3,16-24.4c0.7-1,1.8-2,2.9-2.4c7.8-2.7,15.7-5.2,23.6-7.8c0.3-0.1,0.6,0,1.2,0c-1.7,5.4-3.3,10.6-5.2,15.8
			c-0.4,1.1-1.7,2.2-2.8,2.7c-6.3,2.6-12.7,4.9-19,7.5c-1.3,0.5-2.7,1.7-3.3,3c-2.9,5.4-5.5,11-8.4,16.5c-0.6,1.2-1.9,2.6-3.1,2.9
			c-12.2,3.2-19.3,12-25.4,22.2C-587.7,487.3-589.8,487.8-597.6,484.9z"/>
		<path style="clip-path:url(#SVGID_00000004512893552834043500000003979385999522474663_);fill:#FFFFFF;" d="M-505.6,371.6
			c-5.1-0.6-9.8-0.8-14.3-1.7c-4.7-0.9-8.9-0.5-13.2,1.6c-12.5,6.1-24.9,12.2-37.7,17.6c-5.7,2.4-12.1,3-18.3,4.2
			c-4.6,0.9-9.3,1.2-13.9,2.1c-1.2,0.2-2.5,1.4-3.3,2.5c-2.2,3-5.1,4.5-8.7,4.4c-3.4-0.1-5.8-2-7.3-5c-1.8-3.6-0.7-8.2,2.5-10.6
			c3.4-2.6,9-3.1,11.4,0.1c3,4,6.4,3.1,10.1,2.5c6.2-1,12.4-1.9,18.6-3.2c2.7-0.5,5.3-1.7,7.8-2.8c18.6-8.2,37.2-16.5,55.7-24.8
			c2.1-1,3.3-0.6,4.3,1.5C-510,363.7-507.9,367.4-505.6,371.6z"/>
		<path style="clip-path:url(#SVGID_00000004512893552834043500000003979385999522474663_);fill:#FFFFFF;" d="M-640.1,343.9
			c11.4-1,22.7-1.9,34.2-2.9c0.4,1.9,0.8,3.5,1.2,5.5c-7.4,0.6-14.7,1.2-22,1.8c-3.9,0.3-7.9,0.4-11.8,0.8c-1.4,0.2-3,0.7-4,1.6
			c-5.9,4.9-12.7,3.7-16.2-3.1c-0.2-0.4-0.4-0.7-0.7-1.1c-10.8,0-21.6,0-32.4,0.1c-0.9,0-2,0.9-2.6,1.7c-2.3,3.4-6.6,5.3-10.2,4.3
			c-4-1.1-6.5-4.3-6.6-8.5c-0.1-4.1,2.1-7.1,6-8.4c4-1.4,8.2,0.1,10.8,3.5c0.7,0.9,2.2,1.8,3.3,1.8c10.1,0.1,20.1,0.1,30.2,0
			c1,0,2.4-0.4,3-1.2c6-7,13.9-5.8,17.4,2.8C-640.6,343-640.4,343.3-640.1,343.9z"/>
		<path style="clip-path:url(#SVGID_00000004512893552834043500000003979385999522474663_);fill:#FFFFFF;" d="M-626.5,480.1
			c4.3-5.8,7.8-11.2,12-16c1.6-1.8,4.6-2.9,7.1-3.2c7.4-0.9,12.1-4.9,14.9-11.6c1-2.3,3-4.3,3.9-6.6c1.6-4.1,4.6-5.9,8.7-6.7
			c6.1-1.3,12.1-3.1,18.2-4.7c0.1,0,0.2,0.1,0.5,0.2c-3,4.1-5.8,8.1-8.9,12.1c-0.4,0.6-1.8,0.8-2.6,0.6c-6.6-2-11,1.4-10.9,8.2
			c0,1.1-0.4,2.3-1,3.2c-6.7,8.7-13.5,17.4-20.2,26.2c-1.2,1.6-2.2,2.4-4.5,1.8C-614.6,482.2-620.2,481.3-626.5,480.1z"/>
		<path style="clip-path:url(#SVGID_00000004512893552834043500000003979385999522474663_);fill:#FFFFFF;" d="M-616.3,371.1
			c-5.6,0.6-11,1.1-16.4,1.7c-9.9,1-19.7,2-29.6,3c-1.3,0.1-2.6,0-3.8,0.2c-4.1,0.7-8.3,0.1-12,3.6c-4.5,4.2-11.7,2.5-14.6-2.6
			c-3.1-5.4-1.1-12,4.4-14.7c5.5-2.7,11.5,0,13.8,6.2c0.3,0.7,0.6,1.3,1,2.3c4.6-0.3,9.3-0.6,13.9-1c8.2-0.7,16.3-1.6,24.5-2.4
			c4.3-0.4,8.7-0.9,13-1.3C-617.3,365.7-617.3,365.6-616.3,371.1z"/>
		<path style="clip-path:url(#SVGID_00000004512893552834043500000003979385999522474663_);fill:#FFFFFF;" d="M-387.8,339.4
			c-1.2-3.8-2.3-7.3-3.2-10.8c-0.2-0.9,0.2-2.1,0.7-2.9c2.6-4,5.3-8,8.1-12.3c10.2,3.4,20.4,6.8,30.5,10.3c0,0.5,0,1,0,1.5
			C-363.4,330.4-375.7,334.3-387.8,339.4z"/>
		<path style="clip-path:url(#SVGID_00000004512893552834043500000003979385999522474663_);fill:#FFFFFF;" d="M-646.4,475.1
			c5.1-4.3,9.6-8,14-11.9c1.2-1,1.8-2.6,2.7-3.9c0.6-1,1-2.1,1.7-3.1c1.9-2.6,3.9-5.1,5.7-7.8c1.4-2.1,2.9-3.8,5.6-4.3
			c1-0.2,2.3-0.9,2.6-1.6c1.1-3,3.5-3.1,6.1-3.2c4.2-0.3,8.5-0.8,13.2-1.2c-2.5,4.2-4.6,7.9-6.9,11.6c-0.4,0.7-1.2,1.2-1.9,1.5
			c-1.5,0.6-2.9,1.3-4.5,1.6c-7.6,1.5-12.8,6.2-16.9,12.5c-2.5,3.7-5.4,7.1-8,10.8c-1.1,1.5-2.1,2.1-4,1.6
			C-639.9,476.8-642.8,476.1-646.4,475.1z"/>
		<path style="clip-path:url(#SVGID_00000004512893552834043500000003979385999522474663_);fill:#FFFFFF;" d="M-599.3,429.9
			c4.1-2.8,8.2-5.6,12.4-8.3c6.8-4.4,13.6-8.8,20.5-13.1c0.8-0.5,2.1-0.7,3.1-0.5c4.9,1,9.7,2.2,15.2,3.5
			c-4.4,4.6-6.7,10.3-13.7,11.6c-8.6,1.6-16.9,4.5-25.4,6.4c-3.8,0.9-7.9,0.9-11.9,1.2C-599.1,430.5-599.2,430.2-599.3,429.9z"/>
		<path style="clip-path:url(#SVGID_00000004512893552834043500000003979385999522474663_);fill:#FFFFFF;" d="M-503.9,386.3
			c-1.8,4.1-3.1,7.5-4.7,10.7c-0.4,0.9-1.6,1.7-2.6,2c-8.3,2.9-16.6,5.8-25.3,8c4.7-5.2,9.2-10.6,14-15.7c0.9-0.9,2.7-1.1,4.1-1.5
			C-513.8,388.7-509.2,387.6-503.9,386.3z"/>
		<path style="clip-path:url(#SVGID_00000004512893552834043500000003979385999522474663_);fill:#FFFFFF;" d="M-711,465.5
			c5.9-4.1,11.8-8.3,17.8-12.3c0.8-0.5,2.1-0.9,3-0.7c5.7,1.4,11.3,2.9,17.5,4.5c-4.4,2.7-8.3,5.1-12.2,7.4c-0.7,0.4-2,0.5-2.8,0.2
			c-6.5-2.9-12.7-0.5-19.1,0.5c-1.3,0.2-2.7,0.5-4,0.8C-710.8,465.8-710.9,465.6-711,465.5z"/>
		<path style="clip-path:url(#SVGID_00000004512893552834043500000003979385999522474663_);fill:#FFFFFF;" d="M-674.1,467.7
			c10.2-5.2,21.1-7.6,33.4-7.2c-4.7,4-9.1,7.8-13.7,11.6c-0.5,0.4-1.6,0.2-2.4,0C-662.6,470.6-668.4,469.1-674.1,467.7z"/>
		<path style="clip-path:url(#SVGID_00000004512893552834043500000003979385999522474663_);fill:#FFFFFF;" d="M-768.1,201.3
			c3-1.4,6.2-3.4,6.7-7.6c2.6,3.1,5,5.9,7.2,8.4c-2,2-4.5,4.5-6.7,6.8C-763,206.7-765.4,204.1-768.1,201.3z"/>
		<path style="clip-path:url(#SVGID_00000004512893552834043500000003979385999522474663_);fill:#FFFFFF;" d="M-733.2,321.5
			c2.1,2.3,4.3,4.8,6.4,7.1c-2,1.9-4.2,4-5.5,5.2c-1.7-2.1-3.7-4.4-5.7-6.7c-0.5,0.6-1.1,1.2-1.6,1.7
			C-737.5,326.4-735.3,323.9-733.2,321.5z"/>
		<path style="clip-path:url(#SVGID_00000004512893552834043500000003979385999522474663_);fill:#FFFFFF;" d="M-496.8,285.6
			c-2,2.1-4,4.2-6.1,6.2c0.9,0.2,1.8,0.4,2.6,0.5c-1.8-2.4-3.7-4.8-5.5-7.2c-0.6,0.7-1.3,1.4-1.9,2.1c2.1-2.4,4.3-4.7,6.4-7.1
			c1.8,2.2,3.9,4.7,6,7.1C-495.8,286.8-496.3,286.2-496.8,285.6z"/>
		<path style="clip-path:url(#SVGID_00000004512893552834043500000003979385999522474663_);fill:#FFFFFF;" d="M-770.2,255.2
			c-2.1,2.2-4.1,4.4-6.2,6.5c0.8,0,1.6-0.1,2.4-0.1c-2.2-2.1-4.3-4.2-6.4-6.2c1.1-1.2,3.3-3.4,5.4-5.6c1.7,2,3.8,4.4,5.9,6.8
			C-769.4,256.2-769.8,255.7-770.2,255.2z"/>
		<path style="clip-path:url(#SVGID_00000004512893552834043500000003979385999522474663_);fill:#FFFFFF;" d="M-722,233.7
			c1.9-2.1,3.4-3.8,4.9-5.4c6,6.8,6.2,4.3,0.2,10.1C-718.5,236.8-720.2,235.3-722,233.7z"/>
		<path style="clip-path:url(#SVGID_00000004512893552834043500000003979385999522474663_);fill:#FFFFFF;" d="M-549.6,202.6
			c-1.7,1.8-3.1,3.3-4.5,4.8c-0.3-0.1-0.6-0.1-0.7-0.2c-1.4-1.7-3.9-3.5-3.8-5.1c0.1-1.7,2.7-3.2,4.3-5
			C-552.7,199-551.2,200.7-549.6,202.6z"/>
		<path style="clip-path:url(#SVGID_00000004512893552834043500000003979385999522474663_);fill:#FFFFFF;" d="M-655.5,387.3
			c1.5,1.8,3,3.5,4.5,5.3c-1.8,1.6-3.4,3.1-5,4.6C-660.6,392.1-660.6,392.1-655.5,387.3z"/>
		<path style="clip-path:url(#SVGID_00000004512893552834043500000003979385999522474663_);fill:#FFFFFF;" d="M-611.2,184.2
			c1.5,1.8,2.8,3.4,4.2,5.2c-1.4,1.6-2.8,3-4.1,4.4C-616.5,189.9-616.5,189.9-611.2,184.2z"/>
		<path style="clip-path:url(#SVGID_00000004512893552834043500000003979385999522474663_);fill:#FFFFFF;" d="M-679.6,182.9
			c-1.6,1.7-2.9,3.1-4.1,4.5c-5.1-3.7-5.1-3.7-0.2-9.5C-682.5,179.6-681.1,181.2-679.6,182.9z"/>
		<path style="clip-path:url(#SVGID_00000004512893552834043500000003979385999522474663_);fill:#FFFFFF;" d="M-634,184.3
			c-1.4,1.5-2.6,2.7-3.7,3.9c-0.1,0.1-0.4,0.2-0.5,0.3c-5-3.8-5-4.4,0-9.1C-636.9,181-635.5,182.5-634,184.3z"/>
		<path style="clip-path:url(#SVGID_00000004512893552834043500000003979385999522474663_);fill:#FFFFFF;" d="M-593.2,223.6
			c-4.6-3.5-4.6-4.5,0-8.9C-588.2,219-588.2,219.5-593.2,223.6z"/>
		<path style="clip-path:url(#SVGID_00000004512893552834043500000003979385999522474663_);fill:#FFFFFF;" d="M-729.5,217.7
			c-5.1-4.4-4.8-3.3,0.2-8.3C-724.6,213.5-723.7,213.8-729.5,217.7z"/>
		<path style="clip-path:url(#SVGID_00000004512893552834043500000003979385999522474663_);fill:#FFFFFF;" d="M-434,307.1
			c8.7,0,16.1,7.2,16.1,15.8c0,8.5-7.1,15.6-15.6,15.6c-8.5,0-15.9-7.2-15.9-15.7C-449.4,314.1-442.5,307.1-434,307.1z
			 M-425.8,322.9c0-4.5-3.4-7.9-7.9-7.9c-4.2,0-7.7,3.5-7.6,7.8c0,4.2,3.3,7.6,7.4,7.6C-429.6,330.3-425.8,326.8-425.8,322.9z"/>
		<path style="clip-path:url(#SVGID_00000004512893552834043500000003979385999522474663_);" d="M442.1,412
			c-0.7-5.8-1.8-10.5-1.8-15.2c-0.1-19-6.4-36.2-14.9-52.8c-1.8-3.5-2.7-7.1-2.6-11c0.2-7-0.1-13.9,0.1-20.9c0-2.1-0.7-3-2.6-3.7
			c-10.2-3.6-20.3-7.3-30.4-10.9c-0.7-0.3-1.4-0.6-2.4-1c13.5-13.4,26.5-27.1,45.2-32.9c22.8-7,42.8-2.1,59.4,15.2
			c2.3,2.4,4.5,4.9,6.9,7.4c-2.9,4.3-5.5,8.4-8.4,12.4c-1.1,1.6-1.7,3-0.9,5c0.9,2.4,1.1,5,2.2,7.3c1.7,3.8,0.8,6.3-2.2,9.1
			c-10.5,9.9-16.3,22.5-20.5,36c-4.9,15.4-10.3,30.5-19.2,44.2C447.6,403.9,445.1,407.5,442.1,412z M452.7,281.2
			c-8.6,0-15.4,7.1-15.4,15.7c0.1,8.5,7.4,15.7,15.9,15.7c8.5,0,15.6-7.1,15.6-15.6C468.8,288.4,461.4,281.2,452.7,281.2z"/>
		<path style="clip-path:url(#SVGID_00000004512893552834043500000003979385999522474663_);" d="M351.7,286.1
			c0.8-1.4,1.8-2.9,2.9-4.7c-2.9-3.2-6-6.4-8.9-9.8c-7.9-9.1-15.7-18.2-23.4-27.3c-1.7-2-3.1-3.6-6.3-2.7c-3.6,1-7.9-1.9-9.4-5.2
			c-1.8-3.9-1.1-8.9,2.1-11.5c1.6-1.3,1.6-2.5,1.3-4.4c-3.2-17.7-6.3-35.3-9.4-53c-0.2-1.4-1.1-2.7-2-3.8
			c-3.7-4.7-3.3-10.9,1.3-13.8c3.2-2,6.6-2,9.9-0.2c3.7,2,4.4,5.4,4,9c-0.4,3.6-2.4,6.1-6.1,7c-0.7,0.2-1.4,0.5-2.6,0.8
			c0.9,5.1,1.7,10.1,2.7,15.1c2.5,12.5,5.1,25,7.8,37.5c0.2,1.1,1.5,2.5,2.6,2.9c5.5,1.9,8.4,7.4,6.7,13.1c-0.3,1-0.6,2.5,0,3.2
			c7.9,9.6,15.9,19,24.2,28.7c0.2-0.7,0.4-1,0.4-1.3c0.2-9.5,0.3-19.1,0.5-28.6c0-2.1-0.3-3.5-2.8-4.2c-3.6-1-6.4-6.2-6-10.1
			c0.5-4.9,3.9-8.7,8.5-9.6c4.2-0.8,8.5,1.3,10.6,5c2.7,4.9,1.3,10.5-3.2,13.9c-0.8,0.6-1.6,2-1.6,3c-0.3,11.8-0.5,23.6-0.7,35.3
			c-0.1,3,4.3,8.4,6.9,8.1c8.7-0.8,16,8.8,9.6,19c4.8,2.3,9.5,4.7,14.4,6.7c8.7,3.5,17.5,6.6,26.3,9.8c2.1,0.7,2.8,1.8,2.7,3.9
			c-0.2,4.3-0.1,8.7-0.1,13c-9-1.6-15.2-7.5-22.1-12.3c-8.1-5.6-16.2-11.2-24.3-16.7c-0.9-0.6-2.4-0.8-3.5-0.7
			c-5.8,0.4-9.8-1.7-12.6-6.8c-0.6-1-1.6-1.9-2.6-2.5c-8.4-5.1-16.9-10-25.3-15.1c-11.8-7.1-24.8-10.8-37.9-14.2
			c-2-0.5-4.1-1.1-6.3-1.6c0.4-1.7,0.7-3.5,1.2-5.8c7,1.9,14.1,3.7,21.9,5.8c-2.5-3.6-4.6-6.6-6.7-9.5c-5.7-8-11.3-16.1-17.1-24.1
			c-0.6-0.9-1.6-1.8-2.6-2c-3.3-0.4-5.1-2.3-6.5-5c-0.5-1-1.1-2.2-2-2.6c-8.3-4.3-16.7-8.5-25.1-12.8c-1.5-0.8-2.9-2.2-3.9-3.6
			c-3.1-4.4-5.9-8.9-8.9-13.4c-4.1,1.9-7.7,1.6-11-1.1c-4.9-4-5.2-11.5-0.2-15.4c2.3-1.8,2.8-3.7,2.6-6.2
			c-1.1-9.9-2.1-19.7-3.2-29.5c-7-3.2-9.5-7.3-8.3-13.4c0.9-4.7,5.2-8.1,10.5-8.3c4.9-0.2,9.2,3.1,10.6,8.1
			c1.4,5.2-0.9,9.6-6.9,12.9c0.5,5.2,0.9,10.5,1.5,15.8c0.5,5.1,1.1,10.2,1.9,15.2c0.2,1.2,1.2,2.7,2.2,3.2c5.1,2.8,7,7,5.8,12.8
			c-0.3,1.2-0.1,2.8,0.5,3.9c2.3,4,4.8,7.8,7.3,11.7c0.6,0.9,1.3,1.8,2.2,2.2c8.1,4.2,16.3,8.4,24.5,12.6c0.4,0.2,0.9,0.3,2.1,0.7
			c-0.4-1.8-0.5-3.1-0.9-4.3c-1.9-5.5-3.8-10.9-5.7-16.3c-0.7-1.9-1.3-3.6-3.4-4.6c-2.4-1.1-3.2-4.6-2.2-7c1-2.4,3.7-3.8,6.4-3.1
			c2.8,0.7,4.9,2.6,4.2,5.5c-1.3,5.4,1.6,9.7,2.8,14.4c0.6,2.3,1.8,4.4,2.3,6.6c0.8,3.1,1.9,5.2,5.5,6.3c4.4,1.4,5.7,6.1,3.8,10.6
			c-0.4,1.1-0.5,2.8,0.1,3.7c8.9,12.6,18,25.2,27.1,37.7c0.6,0.8,1.5,1.5,2.5,2C326.8,271.9,339.1,279,351.7,286.1z"/>
		<path style="clip-path:url(#SVGID_00000004512893552834043500000003979385999522474663_);" d="M228.6,245.1
			c-3.8-4.7-7.1-8.9-10.4-13c-4.2-5.3-8.5-10.5-12.6-15.8c-1.1-1.4-1.9-2-4-1.3c-4,1.4-7.7,0.3-10.5-2.8c-2.8-3.1-3-6.8-1.8-10.8
			c0.4-1.2,0.3-3.1-0.4-3.9c-7.4-8.6-15-17.1-22.4-25.6c-1.2-1.4-2.3-1.7-4.1-1.1c-4.4,1.4-9.7-1-11.8-4.9c-2.2-4.1-1.4-9.5,2-12.7
			c3.1-2.9,9-3.4,12.6-1.2c4,2.4,5.8,7.6,4.6,12c-0.3,1.2-0.2,3.1,0.6,3.9c7.6,8.7,15.4,17.2,23.1,25.8c1.1,1.3,2.2,1.8,4.1,1.6
			c7.1-0.9,12.6,5.7,11.3,12.8c-0.2,1.2,0,3,0.7,3.9c8.7,11.2,17.6,22.3,26.4,33.4c0.6,0.7,1.4,1.3,2.3,1.5
			c7.3,1.6,14.5,3.2,21.8,4.7c0.7,0.2,1.6-0.3,2.4-0.4c-0.2-1-0.2-2.1-0.7-2.9c-5.2-7.7-11.2-14.7-19.3-19.7c-3.3-2-6.1-4.7-9.2-7
			c-1.5-1.1-3.2-2-4.9-2.7c-2.3-1-4.1-4-3.4-6.2c0.8-2.5,2.7-3.8,5.3-3.8c2.5,0,4.5,2.4,4.9,5.1c0.1,1,0.7,2.2,1.4,2.8
			c5.1,4,10.1,8.2,15.6,11.8c6.3,4.2,9.7,10.8,14.3,16.3c1.5,1.8,2.7,3.4,5.4,3.9c3.8,0.8,6.1,4.6,5.9,8.5c-0.2,3.6-3,7.1-6.5,7.9
			c-4.1,0.9-8.8-1-10.2-4.7c-1-2.6-2.4-3.4-4.9-3.9c-18.3-3.5-36.6-7.2-54.9-10.8c-0.8-0.1-2,0.4-2.5,1c-5.2,6.1-14.2,4.8-17-2.7
			c-0.8-2.1-1.9-3-3.8-4c-9.1-4.9-18.2-9.9-27.2-15c-2.8-1.6-5-3-8.5-0.4c-3.9,2.9-9.7,1.5-13.1-2.2c-3.1-3.4-3.7-9.3-1.2-13.5
			c2.3-3.9,7.6-6,12.3-4.9c4.7,1.1,8.2,5.2,8.1,10.1c0,2.3,0.8,3.5,2.7,4.5c10,5.4,19.9,10.8,29.8,16.2c1.3,0.7,2.2,1,3.6-0.3
			c5.4-4.9,12.5-3.1,15.5,3.8c0.3,0.6,0.9,1.4,1.4,1.5C210.1,241.7,218.9,243.3,228.6,245.1z"/>
		<path style="clip-path:url(#SVGID_00000004512893552834043500000003979385999522474663_);" d="M367.1,327.7
			c-12.3,4.5-23.6,9.1-35.2,12.8c-4.6,1.5-9.9,1.1-14.9,1.5c-7.8,0.7-15.6,1.3-23.5,2c-0.8,0.1-1.7,0.8-2.1,1.4
			c-2.7,4.4-7.1,6.1-11.3,4.3c-4.4-1.9-6.7-6.7-5.3-11.3c0.9-3,3.2-4.7,6.2-5.4c3.7-0.8,7.2,0,9.5,3c1.4,1.9,2.6,2.4,4.9,2.2
			c10.8-1,21.6-1.3,32.3-2.9c6.9-1,13.5-3.9,20.3-6c0-0.3,0-0.6,0-0.9c-2-0.4-4.1-0.8-6.1-1.1c-13.1-1.9-26.2-3.8-39.3-5.6
			c-1.2-0.2-2.7,0.4-3.7,1.1c-2.9,2.2-5.8,2.5-8.9,0.8c-2.8-1.5-4-4.3-3.8-8c0-1.1-0.6-2.6-1.4-3.4c-3.6-3.7-7.3-7.4-11.3-10.8
			c-1.4-1.2-3.4-2.2-5.2-2.2c-12.1-0.4-24.3-0.5-36.4-0.7c-1.2,0-2.4,0.1-3.5-0.2c-2.9-0.7-4.9-0.2-7.2,2.3
			c-4.2,4.5-12.2,2.7-14.5-3.3c-1.1-2.8-2.6-3.8-5.2-4.6c-7-1.9-13.8-4.1-20.8-5.9c-1.4-0.4-3.2,0.1-4.5,0.8c-2.5,1.3-5,2-7.6,0.7
			c-2.5-1.2-3.9-3.2-3.7-6.1c0-0.8-0.3-2-0.9-2.4c-6.3-4.1-12.7-8-19.5-12.1c-0.7,0.8-1.4,1.7-2.2,2.5c-3.4,3.1-7.8,3.6-11.7,1.3
			c-3.9-2.3-5.6-6.7-4.4-11.3c1-3.9,4.7-6.8,8.9-7.1c4.9-0.3,8.6,2.2,10.3,6.4c0.5,1.2,1.2,2.5,2.2,3.1c6.3,4.2,12.6,8.2,19,12.1
			c1,0.6,2.6,0.8,3.7,0.5c3.4-0.8,6.3,0.4,8.1,3.4c0.6,1,1.6,2,2.6,2.3c8.3,2.5,16.6,4.8,25,7.1c0.8,0.2,2.2-0.3,2.9-1
			c5.3-4.3,12.2-2.8,15,3.4c0.7,1.5,1.5,2.2,3.3,2.2c14.1,0.1,28.3,0.5,42.4,0.6c3,0,5.3,0.9,7.3,3c3.7,3.8,7.5,7.5,11.2,11.3
			c1.1,1.1,1.9,1.7,3.8,1.2c3.9-1.1,7.6,1.2,9.3,4.9c0.5,1.1,1.9,2.3,3.1,2.5c9.9,1.5,20,2.4,29.9,4.1c10,1.7,19.8,4,29.7,6.1
			C364.7,326.5,365.4,327,367.1,327.7z"/>
		<path style="clip-path:url(#SVGID_00000004512893552834043500000003979385999522474663_);" d="M412.7,350.3
			c-6-0.6-11.8-1.4-17.5-1.8c-3-0.2-5-1-6.5-4c-2.9-5.9-6.3-11.5-9.5-17.2c2.9-2.6,5.3-2.1,8.2,0.1c5.3,4,11,7.5,16.6,11.1
			c0.4,0.3,1,0.5,1.5,0.6c7.1,1.1,11.1,5.3,13.4,12c2.7,7.5,6.1,14.6,9.3,21.9c0.7,1.5,0.6,2.4-0.9,3.5c-1.6,1.1-2.8,2.6-4.2,3.9
			c-1.9,1.6-3.5,3.3-6.8,2.8c-4.7-0.8-9,4.3-7.2,8.7c2,5.1,0.2,9.6-0.4,14.2c-0.5,4-1.4,7.9-2.4,11.8c-0.4,1.4-1.3,3.1-2.5,3.9
			c-7.1,4.8-14.4,9.4-21.6,14.2c-1.4,1-2.7,2.4-3.5,3.9c-2.4,4.5-4.4,9.2-6.7,13.7c-0.5,1-1.1,2.5-1.9,2.7c-6.2,1.6-12.5,3-19.5,4.6
			c2-5.1,3.4-9.1,5.2-13.1c0.4-0.9,1.6-1.6,2.6-1.9c2.9-0.9,5.1-2.4,5.9-5.6c0.3-1,1.5-2.1,2.5-2.5c4.2-1.6,7.1-4.2,8.8-8.4
			c1.4-3.4,3.7-6.4,5.2-9.8c2.6-6.1,7.2-10.1,13-12.9c2.5-1.2,3.8-3,4.5-5.6c4.5-16.1,9.3-32.1,13.9-48.1
			C412.5,352.2,412.5,351.5,412.7,350.3z"/>
		<path style="clip-path:url(#SVGID_00000004512893552834043500000003979385999522474663_);" d="M309.1,461.9
			c3.5-4.9,6.7-10,10.5-14.7c1.1-1.4,3.3-2.2,5.2-2.7c8.5-2.2,14.8-6.6,17.2-15.6c2.1-8.1,7.9-12.1,15.6-14.2c3-0.8,5.8-2.6,8.9-3.4
			c3.9-1.1,5.5-3.5,6.5-7.2c1.7-6.4,3.8-12.8,5.8-19.1c0.3-1,0.9-2.5,1.7-2.7c2.9-1,3.9-3.2,5-5.7c2.5-5.6,5.2-11.1,7.7-16.7
			c1-2.2,2.3-3,4.6-2.6c1.5,0.2,3.2,0,5.2,0c-1.2,4.4-2.3,8.4-3.5,12.4c-2.8,9.2-5.6,18.4-8.5,27.6c-0.4,1.3-1.4,2.7-2.5,3.3
			c-6.1,3.2-10.7,7.6-13.7,14c-2.2,4.6-5,8.9-7.7,13.1c-1.2,1.9-3,3.5-4.3,5c-2.4-0.8-4.2-1.7-6.2-1.9c-5-0.5-8.6,4-7.7,8.9
			c0.3,1.3,0.2,2.9-0.3,4.2c-1.8,5.1-3.8,10.1-5.6,15.2c-0.6,1.7-1.3,2.7-3.3,2.8c-10.1,0.4-20.3,0.9-30.4,1.4
			C309.4,462.7,309.3,462.3,309.1,461.9z"/>
		<path style="clip-path:url(#SVGID_00000004512893552834043500000003979385999522474663_);" d="M108.2,427.9
			c47.1-4.7,92.8-13.4,137.6-27.1c-2.4,1.7-4.9,3.3-7.3,5c-7.7,5.2-15.3,10.6-23.1,15.6c-1.3,0.8-3.4,1-4.9,0.6
			c-5-1.1-9.9-2.7-14.8-3.9c-0.9-0.2-2.3,0.2-3.1,0.7c-7.8,5.2-15.7,10.3-23.3,15.8c-5.6,4.1-11.3,6.9-18.6,7.3
			C134.7,443,120.7,438.9,108.2,427.9z"/>
		<path style="clip-path:url(#SVGID_00000004512893552834043500000003979385999522474663_);" d="M375.8,318.9
			c-3.6,1.5-6.5,1.7-9.9,0.4c-14.1-5.5-28.3-10.6-42.5-15.8c-1-0.4-2.5-0.1-3.4,0.4c-6.9,4-14,0.3-14.7-7.7c-0.1-1.1-0.9-2.3-1.7-3
			c-2.2-1.9-4.6-3.4-6.8-5.3c-4.2-3.7-9.7-3.5-14.7-4.5c-13.9-2.7-27.9-5.1-41.9-7.4c-1.5-0.3-3.5,0.2-4.9,1.1
			c-3.3,2.1-6.9,1.5-9.3-1.5c-0.9-1.1-2.4-1.8-3.7-2.5c-0.5-0.3-1.3-0.3-1.8-0.5c-9-4.4-18.7-3.2-28.2-3.3c-0.9,0-1.8,0.5-2.7,0.8
			c-2.4,0.9-4.9,0.8-6.2-1.5c-0.7-1.2-0.3-3.6,0.4-4.9c1.3-2.2,3.6-2,5.9-1c1.7,0.7,3.6,1.1,5.4,1.3c2.3,0.2,4.7,0.2,7,0
			c7.5-0.5,14.8,0.2,21.6,3.7c0.8,0.4,2.4,0.1,3.2-0.4c3-1.9,6.1-1.7,8.8,0.4c1.5,1.2,3.3,2.2,5.1,2.6c17.3,3.1,34.5,6.1,51.8,9.2
			c2.1,0.4,4.1,1.5,5.9,2.7c2,1.2,3.8,2.7,5.5,4.4c2.3,2.4,4.4,2.9,7.7,1.3c5.2-2.5,11.4,1.7,11.9,7.7c0.2,1.8,0.9,2.5,2.5,3.1
			c14.3,5.5,28.6,11,42.9,16.7C371.5,316.1,373.4,317.5,375.8,318.9z"/>
		<path style="clip-path:url(#SVGID_00000004512893552834043500000003979385999522474663_);" d="M220.9,427.3
			c8.9-6.1,17.9-11.9,26.6-18.3c17.4-13,37.4-20.9,56.9-29.7c15.3-6.9,30.5-14.3,45.2-22.5c7.6-4.2,14.8-5.3,23-3
			c-1.4,0.5-2.7,1-4.1,1.4c-1.5,0.5-3,1.2-4.5,1.5c-3.4,0.8-5.8,2.8-8.1,5.4c-4.2,4.9-8.6,9.6-13,14.2c-0.7,0.7-2.2,1.3-3.2,1.1
			c-5.4-1.2-10.8-2.5-16.1-4.1c-1.9-0.5-3.4-0.3-5,0.7c-14.5,9.6-29.1,19.2-43.6,28.8c-2.5,1.7-4.8,3.1-8.1,2.6
			c-3.8-0.5-6.7,2-6.5,5.7c0.2,3.3-1.7,5.3-3.1,7.7c-3.5,6.3-8.9,7.9-15.7,7.8c-6.8,0-13.6,0.8-20.4,1.3
			C221.1,427.9,221,427.6,220.9,427.3z"/>
		<path style="clip-path:url(#SVGID_00000004512893552834043500000003979385999522474663_);" d="M380.2,453.7
			c1.8-3.6,3.1-6.4,4.7-9.2c0.8-1.3,1.8-2.6,3.1-3.5c7.5-4.9,15.2-9.7,22.7-14.7c1.1-0.8,2.3-2.2,2.5-3.6c1.6-7.6,3-15.3,4.5-23
			c0.2-1,1.3-1.8,2-2.6c1.2-1.3,3.3-2.4,3.5-3.8c0.6-4.9,4.9-6.5,7.8-10.2c0.8,6.6,1.5,12.4,2.1,18.3c0.5,4.9,0.7,9.9,1.5,14.8
			c0.4,2.3-0.2,3.8-1.7,5.3c-13.4,13.7-29,23.9-47.2,30.3C384.2,452.5,382.5,453,380.2,453.7z"/>
		<path style="clip-path:url(#SVGID_00000004512893552834043500000003979385999522474663_);" d="M289,459.1
			c6.5-8.4,13-16.8,19.5-25.1c0.5-0.6,1.6-0.9,2.5-1c4-0.6,6.7-2.5,7.6-6.7c0.2-0.8,1.1-1.9,1.8-2.1c2.9-0.9,4.4-2.9,5.9-5.4
			c5.1-8.2,10.6-16.3,16-24.4c0.7-1,1.8-2,2.9-2.4c7.8-2.7,15.7-5.2,23.6-7.8c0.3-0.1,0.6,0,1.2,0c-1.7,5.4-3.3,10.6-5.2,15.8
			c-0.4,1.1-1.7,2.2-2.8,2.7c-6.3,2.6-12.7,4.9-19,7.5c-1.3,0.5-2.7,1.7-3.3,3c-2.9,5.4-5.5,11-8.4,16.5c-0.6,1.2-1.9,2.6-3.1,2.9
			c-12.2,3.2-19.3,12-25.4,22.2C299,461.5,296.9,462,289,459.1z"/>
		<path style="clip-path:url(#SVGID_00000004512893552834043500000003979385999522474663_);" d="M381.4,347.9
			c-5.1-0.6-9.7-0.8-14.2-1.7c-4.6-0.9-8.8-0.5-13.1,1.6c-12.4,6-24.7,12.1-37.4,17.5c-5.6,2.4-12,3-18.1,4.2
			c-4.6,0.9-9.2,1.2-13.8,2.1c-1.2,0.2-2.5,1.4-3.3,2.5c-2.2,3-5,4.5-8.7,4.4c-3.4-0.1-5.8-2-7.3-4.9c-1.8-3.5-0.7-8.1,2.5-10.6
			c3.4-2.6,8.9-3.1,11.3,0.1c3,4,6.4,3.1,10.1,2.5c6.2-1,12.3-1.9,18.4-3.2c2.7-0.5,5.2-1.6,7.7-2.8c18.5-8.2,36.9-16.4,55.3-24.7
			c2.1-1,3.2-0.6,4.3,1.5C377,340,379.1,343.7,381.4,347.9z"/>
		<path style="clip-path:url(#SVGID_00000004512893552834043500000003979385999522474663_);" d="M247.8,320.4
			c11.4-1,22.5-1.9,33.9-2.8c0.4,1.9,0.8,3.5,1.2,5.4c-7.4,0.6-14.6,1.2-21.9,1.8c-3.9,0.3-7.8,0.4-11.7,0.8c-1.4,0.2-2.9,0.7-4,1.5
			c-5.8,4.9-12.6,3.6-16.1-3.1c-0.2-0.4-0.4-0.7-0.7-1.1c-10.7,0-21.5,0-32.2,0.1c-0.9,0-2,0.9-2.5,1.7c-2.3,3.4-6.6,5.3-10.2,4.3
			c-4-1.1-6.4-4.2-6.5-8.4c-0.1-4.1,2.1-7.1,6-8.4c4-1.3,8.2,0.1,10.7,3.5c0.7,0.9,2.1,1.8,3.3,1.8c10,0.1,20,0.1,30,0
			c1,0,2.4-0.4,3-1.2c5.9-6.9,13.8-5.7,17.3,2.8C247.4,319.5,247.5,319.8,247.8,320.4z"/>
		<path style="clip-path:url(#SVGID_00000004512893552834043500000003979385999522474663_);" d="M261.4,455.7
			c4.3-5.8,7.8-11.1,12-15.9c1.6-1.8,4.6-2.8,7-3.1c7.4-0.9,12-4.9,14.8-11.6c1-2.3,3-4.2,3.9-6.6c1.6-4.1,4.5-5.8,8.7-6.7
			c6.1-1.3,12.1-3.1,18.1-4.7c0.1,0,0.2,0.1,0.5,0.2c-2.9,4-5.8,8.1-8.8,12c-0.4,0.5-1.8,0.8-2.6,0.5c-6.5-1.9-10.9,1.3-10.8,8.2
			c0,1.1-0.4,2.3-1,3.1c-6.6,8.7-13.4,17.3-20.1,26c-1.2,1.6-2.2,2.4-4.5,1.8C273.1,457.7,267.6,456.8,261.4,455.7z"/>
		<path style="clip-path:url(#SVGID_00000004512893552834043500000003979385999522474663_);" d="M271.5,347.4
			c-5.6,0.6-11,1.1-16.3,1.7c-9.8,1-19.6,2-29.4,3c-1.3,0.1-2.6,0-3.8,0.2c-4.1,0.7-8.2,0.1-11.9,3.6c-4.5,4.2-11.6,2.5-14.5-2.6
			c-3.1-5.3-1.1-11.9,4.4-14.6c5.4-2.7,11.4,0,13.7,6.2c0.3,0.7,0.6,1.3,1,2.3c4.5-0.3,9.2-0.6,13.8-1c8.1-0.7,16.2-1.6,24.3-2.4
			c4.3-0.4,8.6-0.8,12.9-1.3C270.4,342,270.4,342,271.5,347.4z"/>
		<path style="clip-path:url(#SVGID_00000004512893552834043500000003979385999522474663_);" d="M498.8,313.6
			c-1.2-3.8-2.3-7.3-3.2-10.8c-0.2-0.9,0.2-2.1,0.7-2.9c2.6-4,5.3-8,8.1-12.3c10.2,3.4,20.4,6.8,30.5,10.3c0,0.5,0,1,0,1.5
			C523.3,304.6,510.9,308.5,498.8,313.6z"/>
		<path style="clip-path:url(#SVGID_00000004512893552834043500000003979385999522474663_);" d="M241.6,450.7
			c5.1-4.3,9.6-8,13.9-11.8c1.1-1,1.8-2.6,2.6-3.9c0.6-1,1-2.1,1.7-3c1.8-2.6,3.9-5,5.6-7.7c1.4-2.1,2.8-3.8,5.5-4.3
			c1-0.2,2.3-0.8,2.6-1.6c1.1-3,3.5-3,6-3.2c4.2-0.2,8.4-0.8,13.1-1.2c-2.4,4.1-4.6,7.8-6.8,11.5c-0.4,0.6-1.2,1.1-1.9,1.5
			c-1.4,0.6-2.9,1.3-4.5,1.6c-7.6,1.5-12.7,6.1-16.8,12.4c-2.4,3.7-5.4,7.1-8,10.7c-1.1,1.5-2.1,2.1-3.9,1.6
			C248,452.3,245.2,451.7,241.6,450.7z"/>
		<path style="clip-path:url(#SVGID_00000004512893552834043500000003979385999522474663_);" d="M288.3,405.8
			c4.1-2.7,8.1-5.5,12.3-8.2c6.8-4.4,13.5-8.8,20.4-13c0.8-0.5,2.1-0.7,3.1-0.5c4.8,1,9.6,2.2,15.1,3.5c-4.4,4.5-6.7,10.2-13.6,11.5
			c-8.5,1.6-16.8,4.4-25.2,6.4c-3.8,0.9-7.9,0.8-11.8,1.2C288.5,406.4,288.4,406.1,288.3,405.8z"/>
		<path style="clip-path:url(#SVGID_00000004512893552834043500000003979385999522474663_);" d="M383.1,362.5
			c-1.8,4.1-3.1,7.4-4.7,10.6c-0.4,0.9-1.6,1.7-2.5,2c-8.2,2.9-16.5,5.7-25.1,8c4.6-5.2,9.2-10.5,13.9-15.6c0.9-0.9,2.6-1.1,4-1.5
			C373.2,364.9,377.8,363.8,383.1,362.5z"/>
		<path style="clip-path:url(#SVGID_00000004512893552834043500000003979385999522474663_);" d="M177.4,441.1
			c5.9-4.1,11.8-8.2,17.7-12.2c0.8-0.5,2.1-0.9,3-0.7c5.6,1.4,11.2,2.9,17.4,4.5c-4.4,2.6-8.2,5.1-12.2,7.3c-0.7,0.4-2,0.5-2.8,0.2
			c-6.4-2.9-12.7-0.5-18.9,0.5c-1.3,0.2-2.6,0.5-4,0.8C177.6,441.4,177.5,441.3,177.4,441.1z"/>
		<path style="clip-path:url(#SVGID_00000004512893552834043500000003979385999522474663_);" d="M214,443.3
			c10.1-5.2,21-7.5,33.2-7.1c-4.6,3.9-9.1,7.8-13.6,11.5c-0.5,0.4-1.6,0.2-2.4,0C225.5,446.2,219.7,444.7,214,443.3z"/>
		<path style="clip-path:url(#SVGID_00000004512893552834043500000003979385999522474663_);" d="M118.6,176.8c3-1.4,6.2-3.4,6.7-7.6
			c2.6,3.1,5,5.9,7.2,8.4c-2,2-4.5,4.5-6.7,6.8C123.7,182.2,121.2,179.5,118.6,176.8z"/>
		<path style="clip-path:url(#SVGID_00000004512893552834043500000003979385999522474663_);" d="M153.4,297c2.1,2.3,4.3,4.8,6.4,7.1
			c-2,1.9-4.2,4-5.5,5.2c-1.7-2.1-3.7-4.4-5.7-6.7c-0.5,0.6-1.1,1.2-1.6,1.7C149.2,301.9,151.3,299.4,153.4,297z"/>
		<path style="clip-path:url(#SVGID_00000004512893552834043500000003979385999522474663_);" d="M389.8,261.1c-2,2.1-4,4.2-6.1,6.2
			c0.9,0.2,1.8,0.4,2.6,0.5c-1.8-2.4-3.7-4.8-5.5-7.2c-0.6,0.7-1.3,1.4-1.9,2.1c2.1-2.4,4.3-4.7,6.4-7.1c1.8,2.2,3.9,4.7,6,7.1
			C390.8,262.2,390.3,261.7,389.8,261.1z"/>
		<path style="clip-path:url(#SVGID_00000004512893552834043500000003979385999522474663_);" d="M116.5,230.7
			c-2.1,2.2-4.1,4.4-6.2,6.5c0.8,0,1.6-0.1,2.4-0.1c-2.2-2.1-4.3-4.2-6.4-6.2c1.1-1.2,3.3-3.4,5.4-5.6c1.7,2,3.8,4.4,5.9,6.8
			C117.2,231.6,116.8,231.2,116.5,230.7z"/>
		<path style="clip-path:url(#SVGID_00000004512893552834043500000003979385999522474663_);" d="M166.5,210.9
			c1.9-2.1,3.4-3.8,4.9-5.4c5.9,6.8,6.1,4.2,0.2,10.1C170,214.1,168.3,212.5,166.5,210.9z"/>
		<path style="clip-path:url(#SVGID_00000004512893552834043500000003979385999522474663_);" d="M337.1,178.1
			c-1.7,1.8-3.1,3.3-4.5,4.8c-0.3-0.1-0.6-0.1-0.7-0.2c-1.4-1.7-3.9-3.5-3.8-5.1c0.1-1.7,2.7-3.2,4.3-5
			C333.9,174.4,335.4,176.2,337.1,178.1z"/>
		<path style="clip-path:url(#SVGID_00000004512893552834043500000003979385999522474663_);" d="M232.6,363.5c1.5,1.7,3,3.5,4.5,5.2
			c-1.7,1.6-3.3,3.1-4.9,4.5C227.5,368.3,227.5,368.3,232.6,363.5z"/>
		<path style="clip-path:url(#SVGID_00000004512893552834043500000003979385999522474663_);" d="M275.4,159.7
			c1.5,1.8,2.8,3.4,4.2,5.2c-1.4,1.6-2.8,3-4.1,4.4C270.1,165.3,270.1,165.3,275.4,159.7z"/>
		<path style="clip-path:url(#SVGID_00000004512893552834043500000003979385999522474663_);" d="M207,157c-1.6,1.7-2.9,3.1-4.1,4.5
			c-5.1-3.7-5.1-3.7-0.2-9.5C204.1,153.8,205.5,155.4,207,157z"/>
		<path style="clip-path:url(#SVGID_00000004512893552834043500000003979385999522474663_);" d="M252.7,158.5
			c-1.4,1.5-2.6,2.7-3.7,3.9c-0.1,0.1-0.4,0.2-0.5,0.3c-5-3.8-5-4.4,0-9.1C249.8,155.2,251.1,156.7,252.7,158.5z"/>
		<path style="clip-path:url(#SVGID_00000004512893552834043500000003979385999522474663_);" d="M293.4,199.1
			c-4.6-3.5-4.6-4.5,0-8.9C298.4,194.5,298.4,195,293.4,199.1z"/>
		<path style="clip-path:url(#SVGID_00000004512893552834043500000003979385999522474663_);" d="M159,195.1c-5-4.3-4.8-3.3,0.2-8.3
			C163.9,190.9,164.9,191.2,159,195.1z"/>
		<path style="clip-path:url(#SVGID_00000004512893552834043500000003979385999522474663_);fill:#FFFFFF;" d="M452.7,281.2
			c8.7,0,16.1,7.2,16.1,15.8c0,8.5-7.1,15.6-15.6,15.6c-8.5,0-15.9-7.2-15.9-15.7C437.2,288.3,444.1,281.3,452.7,281.2z
			 M460.9,297.1c0-4.5-3.4-7.9-7.9-7.9c-4.2,0-7.7,3.5-7.6,7.8c0,4.2,3.3,7.6,7.4,7.6C457,304.5,460.8,301,460.9,297.1z"/>
		<path style="clip-path:url(#SVGID_00000004512893552834043500000003979385999522474663_);fill:#0F1518;" d="M150.1,373.8"/>
		<g style="clip-path:url(#SVGID_00000004512893552834043500000003979385999522474663_);">
			<text transform="matrix(1 0 0 1 281.2952 637.1552)" style="font-family:'MyriadPro-Regular'; font-size:12px;">Lorem ipsum</text>
		</g>
	</g>
	<circle cx="453.4" cy="297.5" r="6.7"/>
</g>
</svg>
